<svg xmlns="http://www.w3.org/2000/svg" width="18.979" height="25.39" viewBox="0 0 18.979 25.39">
  <g id="agenda" transform="translate(0 0)">
    <g id="Group_8697" data-name="Group 8697" transform="translate(0 0)">
      <path id="Path_20328" data-name="Path 20328" d="M59.922,0H45.631a3.216,3.216,0,0,0-3.21,3.195v19a3.216,3.216,0,0,0,3.21,3.195h14.3A1.43,1.43,0,0,0,61.4,23.942V1.478A1.481,1.481,0,0,0,59.922,0ZM53.58,1.209h3.552v5.67l-1.26-2.01a.6.6,0,0,0-1.037,0l-1.254,2ZM43.645,3.195a2,2,0,0,1,1.986-1.986h6.74V7.375a1.091,1.091,0,0,0,.753,1.088,1.174,1.174,0,0,0,1.294-.638l.94-1.511.94,1.511a1.194,1.194,0,0,0,1.306.638,1.091,1.091,0,0,0,.753-1.082V1.224h1.575a.257.257,0,0,1,.254.254V19.009a1.473,1.473,0,0,0-.254-.021h-14.3a3.192,3.192,0,0,0-1.986.692Zm16.54,18.4-13.937.015a.6.6,0,0,0,0,1.209l13.937-.015V23.93a.248.248,0,0,1-.254.254h-14.3a1.987,1.987,0,1,1,0-3.975h14.3a.257.257,0,0,1,.254.254Z" transform="translate(-42.421)" fill="#fff"/>
    </g>
  </g>
</svg>
