<svg xmlns="http://www.w3.org/2000/svg" width="21.616" height="21.616" viewBox="0 0 21.616 21.616">
  <g id="design-tool" transform="translate(0.15 0.158)">
    <path id="Path_11" data-name="Path 11" d="M.416,21.808H20.892a.416.416,0,0,0,.294-.71L.71.622A.416.416,0,0,0,0,.916V21.392A.416.416,0,0,0,.416,21.808ZM.832,1.921,4.18,5.269,3.3,6.151a.416.416,0,0,0,.589.589l.883-.883L6.534,7.623l-.883.883a.416.416,0,1,0,.589.589l.883-.883L8.888,9.977l-.883.883a.416.416,0,1,0,.589.589l.883-.883,1.766,1.766-.883.883a.416.416,0,0,0,.589.589l.883-.883L13.6,14.686l-.883.883a.416.416,0,1,0,.589.589l.883-.883,1.766,1.766-.883.883a.416.416,0,0,0,.589.589l.883-.883,3.348,3.348H.832Zm0,0" transform="translate(0 -0.5)" fill="#6d7787" stroke="#6d7787" stroke-width="0.3"/>
    <path id="Path_12" data-name="Path 12" d="M86.71,205.611a.416.416,0,0,0-.71.294v8.366a.416.416,0,0,0,.416.416h8.366a.416.416,0,0,0,.294-.71Zm.122,8.244V206.91l6.945,6.945Zm0,0" transform="translate(-82.421 -196.958)" fill="#6d7787" stroke="#6d7787" stroke-width="0.3"/>
  </g>
</svg>
