<?xml version="1.0" encoding="utf-8"?>
<!-- Generator: Adobe Illustrator 26.5.0, SVG Export Plug-In . SVG Version: 6.00 Build 0)  -->
<svg version="1.1" id="layer1" xmlns="http://www.w3.org/2000/svg" xmlns:xlink="http://www.w3.org/1999/xlink" x="0px" y="0px"
	 viewBox="0 0 22.7 12.4" style="enable-background:new 0 0 22.7 12.4;" xml:space="preserve">
<style type="text/css">
	.st0{fill:#6D7787;}
</style>
<path id="path9413" class="st0" d="M21.6,7.2C21.7,7.2,21.7,7.2,21.6,7.2c0.6,0,1.1-0.5,1.1-1c0-0.6-0.5-1-1-1H3.5l3.4-3.4
	c0,0,0,0,0,0c0.4-0.4,0.4-1.1,0-1.5c-0.4-0.4-1.1-0.4-1.5,0L0.3,5.5c-0.4,0.4-0.4,1.1,0,1.5L2.4,9l3.1,3.1c0.4,0.4,1,0.4,1.4,0
	c0.4-0.4,0.4-1.1,0-1.5L3.5,7.2L21.6,7.2L21.6,7.2z"/>
</svg>
