<svg xmlns="http://www.w3.org/2000/svg" width="21.608" height="20.742" viewBox="0 0 21.608 20.742">
  <g id="bath-tub" transform="translate(0.15 0.15)">
    <g id="Group_15" data-name="Group 15" transform="translate(0 0)">
      <path id="Path_9" data-name="Path 9" d="M19.977,20H2.22V12.517a1.006,1.006,0,0,1,1.008-.95H5.083a.953.953,0,0,1,.95.946,2.077,2.077,0,0,0-1.594,1.86v1.19a.445.445,0,0,0,.444.444H7.991a.445.445,0,0,0,.444-.444v-1.19a2.012,2.012,0,0,0-1.514-1.856,1.839,1.839,0,0,0-1.838-1.838H3.227a1.9,1.9,0,0,0-1.9,1.838V20a1.327,1.327,0,0,0-.888,2.317v2.326a5.434,5.434,0,0,0,2.1,4.364L1.82,30.456a.444.444,0,0,0,.795.4L3.3,29.488a6.077,6.077,0,0,0,2.917.719h8.879a6.077,6.077,0,0,0,2.917-.719l.684,1.363a.444.444,0,1,0,.795-.4L18.76,29a5.427,5.427,0,0,0,2.1-4.364V22.314a1.306,1.306,0,0,0,.444-.981A1.33,1.33,0,0,0,19.977,20Zm-13.5-6.659a1.139,1.139,0,0,1,1.07,1.03v.746H5.327v-.746A1.218,1.218,0,0,1,6.477,13.343Zm13.5,11.3a4.679,4.679,0,0,1-4.883,4.679H6.215a4.679,4.679,0,0,1-4.883-4.679v-1.98H19.977Zm0-2.868H1.345A.455.455,0,0,1,.892,21.4a.445.445,0,0,1,.439-.511H19.963a.455.455,0,0,1,.453.377A.445.445,0,0,1,19.977,21.777Z" transform="translate(0 -10.679)" fill="#6d7787" stroke="#6d7787" stroke-width="0.3"/>
    </g>
  </g>
</svg>
