<svg xmlns="http://www.w3.org/2000/svg" width="21.608" height="19.979" viewBox="0 0 21.608 19.979">
  <g id="double-bed" transform="translate(0.15 0.15)">
    <path id="Path_15" data-name="Path 15" d="M19.949,29.229v-6.7a2.958,2.958,0,0,0-2.954-2.954H4.229a2.958,2.958,0,0,0-2.954,2.954v6.784A4.576,4.576,0,0,0,0,32.487v5.078a1.691,1.691,0,1,0,3.381,0v-.524H17.927v.524a1.691,1.691,0,1,0,3.381,0V32.487A4.578,4.578,0,0,0,19.949,29.229Zm-15.72-8.82H16.995a2.124,2.124,0,0,1,2.122,2.122v6.042a4.575,4.575,0,0,0-.811-.4V26.795a2.228,2.228,0,0,0-2.225-2.225H12.463a2.223,2.223,0,0,0-1.809.932,2.223,2.223,0,0,0-1.809-.932H5.228A2.228,2.228,0,0,0,3,26.795v1.384a4.579,4.579,0,0,0-.9.449v-6.1a2.124,2.124,0,0,1,2.122-2.122ZM4.592,27.9a4.6,4.6,0,0,0-.757.063V26.795A1.394,1.394,0,0,1,5.228,25.4H8.845a1.394,1.394,0,0,1,1.393,1.393v1.1H4.592Zm6.479-1.1A1.394,1.394,0,0,1,12.463,25.4h3.618a1.394,1.394,0,0,1,1.393,1.393v1.163a4.6,4.6,0,0,0-.757-.063H11.07ZM4.592,28.728H16.717a3.764,3.764,0,0,1,3.76,3.76v1.235H16.3a.416.416,0,1,0,0,.832h4.174v1.655H.832V34.554H12.14a.416.416,0,0,0,0-.832H.832V32.487a3.764,3.764,0,0,1,3.76-3.76ZM2.549,37.565a.858.858,0,1,1-1.717,0v-.524H2.549Zm17.069.858a.859.859,0,0,1-.858-.858v-.524h1.717v.524A.859.859,0,0,1,19.618,38.424Z" transform="translate(0 -19.577)" fill="#6d7787" stroke="#6d7787" stroke-width="0.3"/>
    <ellipse id="Ellipse_5" data-name="Ellipse 5" cx="0.416" cy="0.416" rx="0.416" ry="0.416" transform="translate(13.805 14.145)" fill="#6d7787" stroke="#6d7787" stroke-width="0.3"/>
  </g>
</svg>
