<?xml version="1.0" encoding="utf-8"?>
<!-- Generator: Adobe Illustrator 26.3.1, SVG Export Plug-In . SVG Version: 6.00 Build 0)  -->
<svg version="1.1" id="Layer_1" xmlns="http://www.w3.org/2000/svg" xmlns:xlink="http://www.w3.org/1999/xlink" x="0px" y="0px"
	 viewBox="0 0 27.5 27.6" style="enable-background:new 0 0 27.5 27.6;" xml:space="preserve">
<style type="text/css">
	.st0{fill:#FFFFFF;stroke:#FFFFFF;stroke-width:0.5;}
</style>
<g id="phone-call_2_" transform="translate(0.249 0.252)">
	<g id="Group_49" transform="translate(0 0)">
		<path id="Path_33" class="st0" d="M21.4,16.8c-0.5-0.5-1.2-0.9-1.9-0.9c-0.7,0-1.4,0.3-2,0.9l-1.8,1.8c-0.1-0.1-0.3-0.2-0.4-0.2
			c-0.2-0.1-0.4-0.2-0.6-0.3c-1.8-1.2-3.4-2.6-4.7-4.3c-0.6-0.7-1.1-1.6-1.5-2.4c0.5-0.4,0.9-0.9,1.3-1.3c0.2-0.2,0.3-0.3,0.5-0.5
			c1.1-1,1.2-2.6,0.3-3.7c-0.1-0.1-0.2-0.2-0.3-0.3L8.7,4C8.5,3.8,8.3,3.6,8.1,3.5C7.8,3.1,7.4,2.7,7.1,2.4C6.6,1.9,5.9,1.6,5.2,1.6
			c-0.7,0-1.4,0.3-1.9,0.8l0,0l-1.9,2C0.5,5.1,0.1,6,0,7C0,8.5,0.2,9.9,0.8,11.3c1,2.7,2.5,5.1,4.4,7.3c2.5,2.9,5.5,5.3,8.9,7
			c1.6,0.8,3.3,1.3,5,1.5c0.1,0,0.2,0,0.4,0c1.3,0,2.5-0.5,3.3-1.4c0,0,0,0,0,0c0.3-0.4,0.6-0.7,1-1c0.2-0.2,0.5-0.5,0.7-0.7
			c0.5-0.5,0.8-1.2,0.9-2c0-0.7-0.3-1.5-0.9-2L21.4,16.8z M23.4,22.8C23.4,22.8,23.4,22.8,23.4,22.8c-0.2,0.2-0.5,0.5-0.7,0.7
			c-0.4,0.4-0.8,0.7-1.1,1.1c-0.5,0.6-1.3,0.9-2.1,0.9c-0.1,0-0.2,0-0.3,0c-1.6-0.2-3.1-0.6-4.5-1.3c-3.2-1.6-6.1-3.8-8.4-6.6
			c-1.8-2-3.1-4.3-4.1-6.9C1.7,9.6,1.5,8.4,1.6,7.2c0-0.6,0.3-1.3,0.8-1.7l1.9-1.9c0.2-0.2,0.5-0.4,0.9-0.4c0.3,0,0.6,0.2,0.8,0.4
			l0,0c0.3,0.3,0.7,0.7,1,1c0.2,0.2,0.4,0.4,0.5,0.6l1.6,1.6c0.5,0.4,0.6,1,0.2,1.5C9.3,8.3,9.2,8.4,9.2,8.4C9,8.6,8.8,8.8,8.7,8.9
			c-0.5,0.5-0.9,0.9-1.4,1.4c0,0,0,0,0,0c-0.4,0.3-0.5,0.8-0.3,1.3l0,0.1c0.5,1.1,1.1,2.1,1.8,3l0,0c1.4,1.8,3.1,3.4,5.1,4.6
			c0.2,0.1,0.5,0.3,0.7,0.4c0.2,0.1,0.4,0.2,0.6,0.3c0,0,0,0,0.1,0c0.2,0.1,0.4,0.1,0.6,0.1c0.3,0,0.6-0.2,0.9-0.4l2-2
			c0.2-0.2,0.5-0.4,0.9-0.4c0.3,0,0.6,0.2,0.8,0.4l0,0l3.1,3.1c0.5,0.4,0.6,1.1,0.2,1.6C23.6,22.6,23.5,22.7,23.4,22.8L23.4,22.8z"
			/>
		<path id="Path_34" class="st0" d="M14.6,6.4c3.1,0.5,5.5,2.9,6,6c0.1,0.4,0.4,0.6,0.8,0.6c0,0,0.1,0,0.1,0
			c0.4-0.1,0.7-0.5,0.6-0.9c0,0,0,0,0,0c-0.6-3.7-3.5-6.6-7.2-7.2c-0.4-0.1-0.8,0.2-0.9,0.6C13.9,6,14.2,6.4,14.6,6.4
			C14.6,6.4,14.6,6.4,14.6,6.4z"/>
		<path id="Path_35" class="st0" d="M27,11.9C26,5.8,21.2,1.1,15.1,0c-0.4-0.1-0.8,0.2-0.9,0.6s0.2,0.8,0.6,0.9c0,0,0,0,0,0
			c5.4,0.9,9.7,5.2,10.7,10.7c0.1,0.4,0.4,0.6,0.8,0.6c0,0,0.1,0,0.1,0C26.8,12.8,27.1,12.4,27,11.9C27,11.9,27,11.9,27,11.9z"/>
	</g>
</g>
</svg>
