<svg xmlns="http://www.w3.org/2000/svg" width="25" height="18.724" viewBox="0 0 25 18.724">
  <g id="email_2_" data-name="email (2)" transform="translate(0 -64.266)">
    <path id="Path_45655" data-name="Path 45655" d="M14.589,178.35a3.76,3.76,0,0,1-4.179,0L.166,171.52Q.081,171.463,0,171.4v11.191a2.3,2.3,0,0,0,2.3,2.3H22.7a2.3,2.3,0,0,0,2.3-2.3V171.4c-.054.041-.11.08-.167.118Z" transform="translate(0 -101.905)" fill="#00b8c6"/>
    <path id="Path_45656" data-name="Path 45656" d="M.979,68.4l10.244,6.83a2.3,2.3,0,0,0,2.553,0L24.021,68.4A2.193,2.193,0,0,0,25,66.567a2.3,2.3,0,0,0-2.3-2.3H2.3a2.3,2.3,0,0,0-2.3,2.3A2.193,2.193,0,0,0,.979,68.4Z" fill="#00b8c6"/>
  </g>
</svg>
