<svg xmlns="http://www.w3.org/2000/svg" width="37.957" height="37.958" viewBox="0 0 37.957 37.958">
  <g id="facebook_2_" data-name="facebook (2)" transform="translate(0)">
    <path id="Path_45678" data-name="Path 45678" d="M37.957,18.979A18.983,18.983,0,0,1,21.944,37.727V24.465h4.422l.841-5.486H21.944v-3.56a2.743,2.743,0,0,1,3.093-2.964H27.43V7.784a29.192,29.192,0,0,0-4.249-.371c-4.335,0-7.168,2.627-7.168,7.384v4.181H11.194v5.486h4.819V37.727A18.98,18.98,0,1,1,37.957,18.979Z" transform="translate(0)" fill="#1877f2"/>
    <path id="Path_45679" data-name="Path 45679" d="M166.172,117.051l.841-5.486H161.75v-3.56a2.743,2.743,0,0,1,3.093-2.964h2.393v-4.671a29.185,29.185,0,0,0-4.248-.371c-4.335,0-7.169,2.627-7.169,7.384v4.181H151v5.486h4.819v13.262a19.179,19.179,0,0,0,5.931,0V117.051Z" transform="translate(-139.805 -92.586)" fill="#fff"/>
  </g>
</svg>
