<?xml version="1.0" encoding="utf-8"?>
<!-- Generator: Adobe Illustrator 26.3.1, SVG Export Plug-In . SVG Version: 6.00 Build 0)  -->
<svg version="1.1" id="Layer_1" xmlns="http://www.w3.org/2000/svg" xmlns:xlink="http://www.w3.org/1999/xlink" x="0px" y="0px"
	 viewBox="0 0 70 70" style="enable-background:new 0 0 70 70;" xml:space="preserve">
<style type="text/css">
	.st0{fill:#00B8C6;}
	.st1{fill:#0A213C;}
</style>
<g>
	<g id="Group_38589" transform="translate(0.498 0.499)">
		<g id="Group_38590">
			<path id="Union_6" class="st0" d="M56,63.7l-3.8-3.3l-5-4.3l-5-4.3l-5-4.3l-5-4.3l-5-4.3l-1.3-1.1l-3.7,3.2l-5,4.3l-5,4.3l-5,4.3
				l-5,4.3v-58h5v49.2l5-4.3V0.1h5v40.6l5-4.3V0.1h5v34.2l5,4.3V0.1h5V43l5,4.3V0.1h5v51.6l5,4.3V0.1h0.1c0.9,0,1.7,0.1,2.5,0.4
				c0.8,0.3,1.6,0.7,2.4,1.1v58.7l3.8,3.2c-0.9,0.8-1.8,1.5-2.8,2.1L56,63.7z M61.9,36.5c6.8,7.4,6.8,18.7,0,26.1V36.5z M61.9,5.2
				c6.8,7.4,6.8,18.7,0,26.1V5.2z"/>
		</g>
	</g>
	<rect x="28.9" y="64.7" class="st1" width="4.7" height="4.7"/>
	<rect x="21.9" y="64.7" class="st1" width="4.7" height="4.7"/>
	<polygon class="st1" points="2.5,64.5 6.3,61.3 6.3,61.3 6.3,61.2 7.5,60.2 21.4,48.3 26.3,44.1 26.4,44.3 28.8,46.4 26.4,48.5 
		22.3,52 7.5,64.7 6.3,65.7 2.5,69 	"/>
	<rect x="28.9" y="57.6" class="st1" width="4.7" height="4.7"/>
	<rect x="21.9" y="57.6" class="st1" width="4.7" height="4.7"/>
</g>
</svg>
