<svg xmlns="http://www.w3.org/2000/svg" width="30.672" height="33.853" viewBox="0 0 30.672 33.853">
  <g id="pdf_5_" data-name="pdf (5)" transform="translate(-24.049)">
    <path id="Path_43" data-name="Path 43" d="M54.266,5.135,49.586.456A1.546,1.546,0,0,0,48.486,0h-19.7a1.558,1.558,0,0,0-1.556,1.556v15.4H26.135a2.088,2.088,0,0,0-2.086,2.086v9.54a2.088,2.088,0,0,0,2.086,2.086h16.43a1.558,1.558,0,0,0,1.556-1.556V21.7a1.558,1.558,0,0,0-1.556-1.556H26.135a1.094,1.094,0,0,1,0-2.188h1.094v.564a.5.5,0,0,0,.992,0V1.556a.565.565,0,0,1,.564-.564H47.9V5.8a1.027,1.027,0,0,0,1.026,1.026h4.8V32.3a.565.565,0,0,1-.564.564H28.785a.565.565,0,0,1-.564-.564.5.5,0,0,0-.992,0,1.558,1.558,0,0,0,1.556,1.556H53.165A1.558,1.558,0,0,0,54.721,32.3V6.235A1.545,1.545,0,0,0,54.266,5.135Zm-28.131,16h16.43a.565.565,0,0,1,.564.564v7.42a.565.565,0,0,1-.564.564H26.135a1.1,1.1,0,0,1-1.094-1.094V20.822A2.072,2.072,0,0,0,26.135,21.132ZM48.891,5.8V1.163L53.558,5.83H48.925A.034.034,0,0,1,48.891,5.8Z"/>
    <path id="Path_44" data-name="Path 44" d="M229.567,350.129a.5.5,0,0,0,.5-.5v-1.649h1.074a.5.5,0,1,0,0-.992h-1.074V345.92h1.21a.5.5,0,1,0,0-.992h-1.706a.5.5,0,0,0-.5.5v4.209A.5.5,0,0,0,229.567,350.129Z" transform="translate(-191.466 -322.122)"/>
    <path id="Path_45" data-name="Path 45" d="M155.553,350.6a.5.5,0,0,0,.349.144h0c.035,0,.866,0,1.2-.009a2.305,2.305,0,0,0,2.115-2.544c0-1.527-.867-2.553-2.157-2.553h-1.165a.5.5,0,0,0-.5.5v0h0v4.044a.7.7,0,0,0,.155.419Zm1.506-3.971c.86,0,1.166.807,1.166,1.561,0,1.059-.573,1.543-1.14,1.552-.158,0-.439,0-.688.007,0-.486,0-2.614-.006-3.12Z" transform="translate(-122.664 -322.789)"/>
    <path id="Path_46" data-name="Path 46" d="M88.441,349.924a.5.5,0,0,0,.5-.5v-1.349l.685,0a1.693,1.693,0,1,0,0-3.385H88.441a.5.5,0,0,0-.5.5h0v4.24A.5.5,0,0,0,88.441,349.924Zm1.181-4.24a.7.7,0,1,1,0,1.4l-.679,0c0-.253,0-1.139,0-1.4h.683Z" transform="translate(-59.671 -321.902)"/>
    <path id="Path_47" data-name="Path 47" d="M184.6,91.113a7.985,7.985,0,0,0-3.137,1.606,1.384,1.384,0,0,0-.274,1.809,1.183,1.183,0,0,0,1,.6,1.319,1.319,0,0,0,.471-.092,4.769,4.769,0,0,0,1.924-1.938c.23-.349.462-.737.694-1.157l.258-.074a24.736,24.736,0,0,1,4.372-.794,6.066,6.066,0,0,0,2.469,1.631,1.384,1.384,0,0,0,1.741-1,1.03,1.03,0,0,0-.5-1.254,5.121,5.121,0,0,0-2.533-.426c-.253,0-.521.013-.8.03a19.8,19.8,0,0,1-2.726-3.6q.051-.176.1-.347a7.551,7.551,0,0,0,.359-2.861c-.145-.926-.743-1.057-.993-1.071a1.323,1.323,0,0,0-1.535,1.15,4.744,4.744,0,0,0,.608,2.488c.117.248.247.5.391.764q-.08.257-.174.536a28.493,28.493,0,0,1-1.714,4Zm-2.381,3.021c-.035,0-.1.012-.2-.146a.305.305,0,0,1-.017-.357,3.785,3.785,0,0,1,1.825-1.189C183.064,93.626,182.493,94.1,182.216,94.134Zm10.968-2.777a.178.178,0,0,1-.008.034c-.124.378-.29.414-.573.348a3.586,3.586,0,0,1-1.274-.727C192.654,91.023,193.117,91.261,193.184,91.357Zm-6.715-7.9c.02-.142.043-.3.42-.3l.076,0c.113.138.171.75-.09,1.961A3.542,3.542,0,0,1,186.469,83.46Zm.691,4.232c.218.334.452.672.7,1.009.356.484.758.986,1.183,1.465-.492.059-1,.136-1.507.228-.344.062-.943.18-1.644.355q.233-.484.459-1C186.649,89.066,186.924,88.367,187.16,87.692Z" transform="translate(-146.538 -76.734)"/>
  </g>
</svg>
