<svg xmlns="http://www.w3.org/2000/svg" width="25.391" height="25.416" viewBox="0 0 25.391 25.416">
  <path id="filter_5_" data-name="filter (5)" d="M.793,4.24H12.874a3.7,3.7,0,0,0,7.218,0h4.5a.793.793,0,1,0,0-1.587H20.092a3.7,3.7,0,0,0-7.218,0H.793a.793.793,0,1,0,0,1.587Zm13.582-.791s0-.006,0-.009a2.108,2.108,0,0,1,4.216,0V3.45a2.108,2.108,0,0,1-4.216,0ZM24.6,20.679H20.092a3.7,3.7,0,0,0-7.218,0H.793a.793.793,0,0,0,0,1.587H12.874a3.7,3.7,0,0,0,7.218,0h4.5a.793.793,0,0,0,0-1.587Zm-8.114,2.9a2.11,2.11,0,0,1-2.108-2.1v0s0-.006,0-.009a2.108,2.108,0,0,1,4.216,0v.012A2.11,2.11,0,0,1,16.483,23.581ZM24.6,11.666H12.517a3.7,3.7,0,0,0-7.218,0H.793a.793.793,0,0,0,0,1.587H5.3a3.7,3.7,0,0,0,7.218,0H24.6a.793.793,0,1,0,0-1.587Zm-13.582.791s0,.006,0,.009a2.108,2.108,0,0,1-4.216,0v-.012a2.108,2.108,0,0,1,4.216,0Z" transform="translate(0 0.248)" fill="#6d7787"/>
</svg>
