<svg xmlns="http://www.w3.org/2000/svg" width="25.405" height="27.528" viewBox="0 0 25.405 17.528">
  <path id="electric-car" d="M23.827,16.585,22.349,15.4l-.018-.015,1.376-.275a.393.393,0,0,0,.316-.386V13.544a.394.394,0,0,0-.394-.394H21.66a.394.394,0,0,0-.394.394v.69l-.027-.037a.382.382,0,0,0-.125-.169,5.814,5.814,0,0,1-.535-.9l-.666-1.464A3.047,3.047,0,0,0,17.328,10H7.876a3.047,3.047,0,0,0-2.585,1.665l-.665,1.463a5.816,5.816,0,0,1-.535.9.385.385,0,0,0-.125.169l-.027.037v-.69a.394.394,0,0,0-.394-.394H1.575a.394.394,0,0,0-.394.394v1.181a.393.393,0,0,0,.317.386l1.376.275-.018.015L1.378,16.585A4.1,4.1,0,0,0,0,19.452v6.7a1.183,1.183,0,0,0,1.181,1.181H4.332a1.183,1.183,0,0,0,1.181-1.181v-.788H19.691v.788a1.183,1.183,0,0,0,1.181,1.181h3.151A1.183,1.183,0,0,0,25.2,26.147v-6.7A4.1,4.1,0,0,0,23.827,16.585Zm-3.579,7.987-.9-.9A2.558,2.558,0,0,0,17.722,23H7.286a2.558,2.558,0,0,0-1.623.672l-.9.9H1.969A1.183,1.183,0,0,1,.788,23.39V21.421h.394v.394A1.577,1.577,0,0,0,2.757,23.39H3.938a.394.394,0,1,0,0-.788H2.757a.788.788,0,0,1-.788-.788v-.394h.788a1.821,1.821,0,0,1,1.066.441.394.394,0,0,0,.557-.557,2.557,2.557,0,0,0-1.623-.672H.788V19.452a2.269,2.269,0,0,1,.053-.442,1.5,1.5,0,0,0,1.128.442H5.12a.393.393,0,0,0,.278-.115l.509-.509.509.509a.393.393,0,0,0,.278.115h4.563l1.066,1.066a.394.394,0,0,0,.557,0l1.066-1.066H18.51a.393.393,0,0,0,.278-.115l.509-.509.509.509a.393.393,0,0,0,.278.115h3.151a1.5,1.5,0,0,0,1.128-.442,2.269,2.269,0,0,1,.053.442v1.181H22.448a2.558,2.558,0,0,0-1.623.672.394.394,0,1,0,.557.557,1.821,1.821,0,0,1,1.066-.441h.788v.394a.788.788,0,0,1-.788.788H21.266a.394.394,0,1,0,0,.788h1.181a1.577,1.577,0,0,0,1.575-1.575v-.394h.394V23.39a1.183,1.183,0,0,1-1.181,1.181Zm-1.114,0H5.873l.346-.346a1.821,1.821,0,0,1,1.066-.441H17.722a1.821,1.821,0,0,1,1.066.441ZM4.553,14.726h16.1a7.606,7.606,0,0,0,1.2,1.292l.474.379-2.786,1.114h0a.394.394,0,0,0-.131.087l-.394.394-.673.673H13.784a.393.393,0,0,0-.278.115l-.9.9-.9-.9a.393.393,0,0,0-.278-.115H6.858l-.672-.672L5.792,17.6a.394.394,0,0,0-.131-.087h0L2.875,16.4l.474-.379a7.639,7.639,0,0,0,1.2-1.292ZM24,18.041a.7.7,0,0,1-.764.623H20.248l-.394-.394.058-.058,3.125-1.25.3.238A2.834,2.834,0,0,1,24,18.041Zm-1.946-4.1h1.181V14.4l-1.181.236ZM5.342,13.455l.665-1.463a2.269,2.269,0,0,1,1.869-1.2h9.452a2.268,2.268,0,0,1,1.869,1.2l.666,1.464a5.322,5.322,0,0,0,.258.484H5.084a5.225,5.225,0,0,0,.258-.484Zm-3.373.484H3.151v.7L1.969,14.4ZM1.87,17.2l.3-.238,3.125,1.25.058.058-.394.394H1.969a.7.7,0,0,1-.764-.623A2.833,2.833,0,0,1,1.87,17.2Zm2.462,9.341H1.181a.394.394,0,0,1-.394-.394V24.955a1.951,1.951,0,0,0,1.181.4H4.726v.788A.394.394,0,0,1,4.332,26.541Zm19.691,0H20.873a.394.394,0,0,1-.394-.394v-.788h2.757a1.951,1.951,0,0,0,1.181-.4v1.191A.394.394,0,0,1,24.023,26.541Z" transform="translate(0.1 -9.9)" fill="#6d7787" stroke="#6d7787" stroke-width="0.2"/>
</svg>
