<?xml version="1.0" encoding="utf-8"?>
<!-- Generator: Adobe Illustrator 26.5.0, SVG Export Plug-In . SVG Version: 6.00 Build 0)  -->
<svg version="1.1" id="Layer_1" xmlns="http://www.w3.org/2000/svg" xmlns:xlink="http://www.w3.org/1999/xlink" x="0px" y="0px"
	 viewBox="0 0 512 512" style="enable-background:new 0 0 512 512;" xml:space="preserve">
<style type="text/css">
	.st0{fill:#6D7787;}
</style>
<g id="Layer_13">
</g>
<g>
	<path class="st0" d="M3.5,100.1C3.5,86.2,14.8,75,28.7,75h454.7c13.9,0,25.1,11.3,25.1,25.1s-11.2,25.1-25.1,25.1H28.7
		C14.8,125.3,3.5,114,3.5,100.1z"/>
	<path class="st0" d="M67.8,256c0-14,11.4-25.4,25.4-25.4h388.5c14,0,25.4,11.4,25.4,25.4s-11.3,25.4-25.4,25.4H93.1
		C79.1,281.3,67.8,270,67.8,256z"/>
	<path class="st0" d="M231.2,412c0-13.8,11.2-25,25-25h225.4c13.8,0,25,11.2,25,25s-11.2,25-25,25H256.3
		C242.5,437,231.2,425.8,231.2,412z"/>
</g>
</svg>
