<svg xmlns="http://www.w3.org/2000/svg" width="28.416" height="28.416" viewBox="0 0 28.416 28.416">
  <g id="printer_2_" data-name="printer (2)" transform="translate(0.1 0.1)">
    <path id="Path_52" data-name="Path 52" d="M25.277,20.108H21.75a.588.588,0,0,1,0-1.176h3.527a1.766,1.766,0,0,0,1.763-1.763V8.939a1.766,1.766,0,0,0-1.763-1.763H2.939A1.766,1.766,0,0,0,1.176,8.939v8.23a1.766,1.766,0,0,0,1.763,1.763H6.466a.588.588,0,0,1,0,1.176H2.939A2.942,2.942,0,0,1,0,17.169V8.939A2.942,2.942,0,0,1,2.939,6H25.277a2.942,2.942,0,0,1,2.939,2.939v8.23A2.942,2.942,0,0,1,25.277,20.108Z" transform="translate(0 1.054)" fill="#6d7787" stroke="#6d7787" stroke-width="0.2"/>
    <path id="Path_53" data-name="Path 53" d="M15.642,21.176H8.588a.588.588,0,0,1,0-1.176h7.054a.588.588,0,1,1,0,1.176Z" transform="translate(1.405 3.513)" fill="#6d7787" stroke="#6d7787" stroke-width="0.2"/>
    <path id="Path_54" data-name="Path 54" d="M15.642,19.176H8.588a.588.588,0,1,1,0-1.176h7.054a.588.588,0,1,1,0,1.176Z" transform="translate(1.405 3.162)" fill="#6d7787" stroke="#6d7787" stroke-width="0.2"/>
    <path id="Path_55" data-name="Path 55" d="M10.939,17.176H8.588a.588.588,0,1,1,0-1.176h2.351a.588.588,0,1,1,0,1.176Z" transform="translate(1.405 2.811)" fill="#6d7787" stroke="#6d7787" stroke-width="0.2"/>
    <path id="Path_56" data-name="Path 56" d="M20.871,8.23a.588.588,0,0,1-.588-.588v-4.7A1.766,1.766,0,0,0,18.52,1.176H7.939A1.766,1.766,0,0,0,6.176,2.939v4.7A.588.588,0,0,1,5,7.642v-4.7A2.942,2.942,0,0,1,7.939,0H18.52a2.942,2.942,0,0,1,2.939,2.939v4.7A.588.588,0,0,1,20.871,8.23Z" transform="translate(0.878)" fill="#6d7787" stroke="#6d7787" stroke-width="0.2"/>
    <path id="Path_57" data-name="Path 57" d="M18.52,25.932H7.939A2.942,2.942,0,0,1,5,22.993V13.588A.588.588,0,0,1,5.588,13H20.871a.588.588,0,0,1,.588.588v9.405A2.942,2.942,0,0,1,18.52,25.932ZM6.176,14.176v8.817a1.766,1.766,0,0,0,1.763,1.763H18.52a1.766,1.766,0,0,0,1.763-1.763V14.176Z" transform="translate(0.878 2.284)" fill="#6d7787" stroke="#6d7787" stroke-width="0.2"/>
  </g>
</svg>
