<svg id="Icon-date" xmlns="http://www.w3.org/2000/svg" width="17.447" height="17.447" viewBox="0 0 17.447 17.447">
  <g id="Group_8699" data-name="Group 8699">
    <g id="Group_8698" data-name="Group 8698">
      <path id="Path_20329" data-name="Path 20329" d="M15.578,1.869H13.709V.623a.623.623,0,0,0-1.246,0V1.869H4.985V.623a.623.623,0,1,0-1.246,0V1.869H1.869A1.869,1.869,0,0,0,0,3.739V15.578a1.869,1.869,0,0,0,1.869,1.869H15.578a1.869,1.869,0,0,0,1.869-1.869V3.739A1.869,1.869,0,0,0,15.578,1.869ZM16.2,15.578a.623.623,0,0,1-.623.623H1.869a.623.623,0,0,1-.623-.623v-8.1H16.2Zm0-9.347H1.246V3.739a.623.623,0,0,1,.623-.623H3.739V4.362a.623.623,0,0,0,1.246,0V3.116h7.477V4.362a.623.623,0,0,0,1.246,0V3.116h1.869a.623.623,0,0,1,.623.623V6.231Z" fill="#6d7787"/>
    </g>
  </g>
  <g id="Group_8701" data-name="Group 8701" transform="translate(4.369 8.731)">
    <g id="Group_8700" data-name="Group 8700">
      <path id="Path_20330" data-name="Path 20330" d="M128.194,239.318a.623.623,0,0,0-.866,0l-4.544,4.544-2.052-2.052a.623.623,0,0,0-.881.881l2.492,2.492a.623.623,0,0,0,.881,0l4.985-4.985A.623.623,0,0,0,128.194,239.318Z" transform="translate(-119.676 -239.143)" fill="#6d7787"/>
    </g>
  </g>
</svg>
