<svg xmlns="http://www.w3.org/2000/svg" width="22.46" height="25.806" viewBox="0 0 22.46 25.806">
  <path id="share_3_" data-name="share (3)" d="M18.237,17.358a4.214,4.214,0,0,0-3.124,1.383L8.159,14.434a4.208,4.208,0,0,0,0-3.063l6.954-4.307A4.223,4.223,0,1,0,14.3,5.755L7.347,10.063a4.224,4.224,0,1,0,0,5.681L14.3,20.05a4.223,4.223,0,1,0,3.935-2.692ZM15.553,4.224a2.684,2.684,0,1,1,2.684,2.684A2.687,2.687,0,0,1,15.553,4.224ZM4.224,15.587A2.684,2.684,0,1,1,6.907,12.9,2.687,2.687,0,0,1,4.224,15.587Zm11.329,6a2.684,2.684,0,1,1,2.684,2.684A2.687,2.687,0,0,1,15.553,21.582Zm0,0" fill="#6d7787"/>
</svg>
