<svg xmlns="http://www.w3.org/2000/svg" width="25.806" height="21.826" viewBox="0 0 25.806 21.826">
  <path id="heart_5_" data-name="heart (5)" d="M24.691,42.575a6.59,6.59,0,0,0-3.032-2.565,7.3,7.3,0,0,0-4.6-.309A9.842,9.842,0,0,0,12.9,41.976,9.841,9.841,0,0,0,8.751,39.7a7.292,7.292,0,0,0-4.6.309,6.59,6.59,0,0,0-3.032,2.565A7.576,7.576,0,0,0,0,46.785C.129,53.7,10.436,60,12.5,61.187a.806.806,0,0,0,.806,0C15.372,60,25.68,53.7,25.805,46.784a7.576,7.576,0,0,0-1.114-4.208Zm-.5,4.179c-.04,2.237-1.532,4.846-4.313,7.543A39.4,39.4,0,0,1,12.9,59.554,39.37,39.37,0,0,1,5.928,54.3c-2.781-2.7-4.272-5.305-4.313-7.542A5.318,5.318,0,0,1,4.773,41.5a5.375,5.375,0,0,1,2.092-.415,7.851,7.851,0,0,1,5.464,2.573.806.806,0,0,0,1.15,0c2.289-2.327,5.184-3.154,7.555-2.158a5.318,5.318,0,0,1,3.159,5.257Z" transform="translate(-0.001 -39.469)" fill="#6d7787"/>
</svg>
