<svg xmlns="http://www.w3.org/2000/svg" xmlns:xlink="http://www.w3.org/1999/xlink" width="37" height="38" viewBox="0 0 37 38">
  <defs>
    <linearGradient id="linear-gradient" x1="0.119" y1="0.881" x2="0.83" y2="0.17" gradientUnits="objectBoundingBox">
      <stop offset="0" stop-color="#fee411"/>
      <stop offset="0.052" stop-color="#fedb16"/>
      <stop offset="0.138" stop-color="#fec125"/>
      <stop offset="0.248" stop-color="#fe983d"/>
      <stop offset="0.376" stop-color="#fe5f5e"/>
      <stop offset="0.5" stop-color="#fe2181"/>
      <stop offset="1" stop-color="#9000dc"/>
    </linearGradient>
  </defs>
  <g id="instagram_2_" data-name="instagram (2)" transform="translate(-0.436 0.47)">
    <ellipse id="Ellipse_505" data-name="Ellipse 505" cx="18.5" cy="19" rx="18.5" ry="19" transform="translate(0.436 -0.47)" fill="url(#linear-gradient)"/>
    <g id="Group_38641" data-name="Group 38641" transform="translate(8.422 8.376)">
      <path id="Path_45680" data-name="Path 45680" d="M145.4,131h-7.906a6.4,6.4,0,0,0-6.391,6.391V145.3a6.4,6.4,0,0,0,6.391,6.391H145.4a6.4,6.4,0,0,0,6.391-6.391v-7.906A6.4,6.4,0,0,0,145.4,131Zm4.081,14.305a4.093,4.093,0,0,1-4.09,4.09h-7.906a4.093,4.093,0,0,1-4.09-4.09V137.4a4.093,4.093,0,0,1,4.09-4.09h7.906a4.093,4.093,0,0,1,4.09,4.09Z" transform="translate(-131.1 -131)" fill="#fff"/>
      <path id="Path_45681" data-name="Path 45681" d="M197.39,192.1a5.29,5.29,0,1,0,5.29,5.29A5.3,5.3,0,0,0,197.39,192.1Zm0,8.5a3.212,3.212,0,1,1,3.212-3.212A3.215,3.215,0,0,1,197.39,200.6Z" transform="translate(-187.05 -187.042)" fill="#fff"/>
      <ellipse id="Ellipse_506" data-name="Ellipse 506" cx="0.894" cy="0.894" rx="0.894" ry="0.894" transform="matrix(0.987, -0.16, 0.16, 0.987, 14.864, 4.016)" fill="#fff"/>
    </g>
  </g>
</svg>
