<svg xmlns="http://www.w3.org/2000/svg" width="69.293" height="109.921" viewBox="0 0 69.293 109.921">
  <g id="Group_38589" data-name="Group 38589" transform="translate(0.498 0.499)">
    <g id="Group_38590" data-name="Group 38590">
      <path id="Union_6" data-name="Union 6" d="M18250.746,16192.338v-4.98h4.98v4.98Zm-7.354,0v-4.98h4.98v4.98Zm-20.391-5.164,3.988-3.425h.037v-.032l1.217-1.042,14.615-12.546,5.137-4.406.143.17,2.475,2.249-2.475,2.162-4.334,3.723-15.561,13.35-1.217,1.042-4.025,3.456Zm56.746-.335-3.965-3.42-5.279-4.545-5.279-4.549-5.279-4.545-5.273-4.549-5.279-4.545-1.4-1.2-3.883,3.333-5.279,4.526-5.279,4.53-5.279,4.531-5.273,4.53V16120h5.273v51.7l5.279-4.526V16120h5.279v42.646l5.279-4.526V16120h5.279v35.971l5.279,4.55V16120h5.273v45.069l5.279,4.545V16120h5.279v54.163l5.279,4.545V16120h.086a7.6,7.6,0,0,1,2.658.464,20.64,20.64,0,0,1,2.535,1.156v61.637l3.961,3.411a20.06,20.06,0,0,1-2.9,2.217Zm6.221-28.544a20.266,20.266,0,0,1,0,27.387Zm-35.223,26.611v-4.977h4.98v4.977Zm-7.354,0v-4.977h4.98v4.977Zm42.576-59.525a20.266,20.266,0,0,1,0,27.387Z" transform="translate(-18223 -16120)" fill="#00b8c6" stroke="rgba(0,0,0,0)" stroke-width="1"/>
      <path id="Path_45639" data-name="Path 45639" d="M.021,78.714H7.193A18.23,18.23,0,0,1,9.7,78.89a6.885,6.885,0,0,1,2.27.707A4.344,4.344,0,0,1,13.6,81.078a4.542,4.542,0,0,1,.625,2.526,4.035,4.035,0,0,1-.91,2.7,5,5,0,0,1-2.405,1.534V87.9a5.51,5.51,0,0,1,1.726.53,4.606,4.606,0,0,1,1.331,1.006,4.3,4.3,0,0,1,.856,1.426,5.016,5.016,0,0,1,.3,1.739,4.614,4.614,0,0,1-.652,2.539,5.134,5.134,0,0,1-1.685,1.645,7.4,7.4,0,0,1-2.322.9,12.455,12.455,0,0,1-2.568.272H.021ZM4.259,86.4h3.07a4.285,4.285,0,0,0,.964-.108,2.67,2.67,0,0,0,.855-.353,1.846,1.846,0,0,0,.612-.653,1.949,1.949,0,0,0,.231-.978,1.78,1.78,0,0,0-.258-.991,1.8,1.8,0,0,0-.665-.611,3.174,3.174,0,0,0-.924-.313A5.587,5.587,0,0,0,7.138,82.3H4.259Zm0,7.961h3.8a4.723,4.723,0,0,0,.992-.109,2.666,2.666,0,0,0,.91-.38,2.156,2.156,0,0,0,.665-.707,2.037,2.037,0,0,0,.258-1.059,1.7,1.7,0,0,0-.339-1.1,2.152,2.152,0,0,0-.856-.639,4.411,4.411,0,0,0-1.114-.3,8.335,8.335,0,0,0-1.114-.081H4.259Z" fill="#0a213c"/>
      <path id="Path_45640" data-name="Path 45640" d="M17.788,78.714h4.238V94.037h7.852v3.912H17.788Z" fill="#0a213c"/>
      <rect id="Rectangle_17485" data-name="Rectangle 17485" width="4.238" height="19.235" transform="translate(32.16 78.714)" fill="#0a213c"/>
      <path id="Path_45641" data-name="Path 45641" d="M49.765,83.414a3.015,3.015,0,0,0-1.4-.964,5.027,5.027,0,0,0-1.671-.313,4.4,4.4,0,0,0-.95.109,3.641,3.641,0,0,0-.924.34,2.018,2.018,0,0,0-.707.611,1.691,1.691,0,0,0,.381,2.255,6.193,6.193,0,0,0,1.643.788q.991.326,2.133.652a8.767,8.767,0,0,1,2.133.924,5.045,5.045,0,0,1,1.643,1.6,4.884,4.884,0,0,1,.652,2.69,6.192,6.192,0,0,1-.6,2.8,5.684,5.684,0,0,1-1.617,1.983,6.873,6.873,0,0,1-2.363,1.168,10.851,10.851,0,0,1-6.317-.19,8.7,8.7,0,0,1-2.989-1.848l3.016-3.314a4.4,4.4,0,0,0,1.644,1.345,4.691,4.691,0,0,0,2.051.475,4.614,4.614,0,0,0,1.046-.123,3.367,3.367,0,0,0,.951-.366,2.062,2.062,0,0,0,.679-.625,1.563,1.563,0,0,0,.258-.9,1.627,1.627,0,0,0-.665-1.372,6.152,6.152,0,0,0-1.672-.857q-1.005-.351-2.173-.705a9.761,9.761,0,0,1-2.174-.952,5.222,5.222,0,0,1-1.67-1.575,4.508,4.508,0,0,1-.666-2.581,5.787,5.787,0,0,1,.611-2.717A5.9,5.9,0,0,1,41.683,79.8a7.073,7.073,0,0,1,2.35-1.182,9.636,9.636,0,0,1,2.743-.393,10.791,10.791,0,0,1,3.152.461,7.285,7.285,0,0,1,2.744,1.549Z" fill="#0a213c"/>
      <path id="Path_45642" data-name="Path 45642" d="M65.359,83.414a3.015,3.015,0,0,0-1.4-.964,5.027,5.027,0,0,0-1.671-.313,4.4,4.4,0,0,0-.95.109,3.641,3.641,0,0,0-.924.34,2.018,2.018,0,0,0-.707.611,1.691,1.691,0,0,0,.381,2.255,6.177,6.177,0,0,0,1.643.788q.992.326,2.133.652A8.784,8.784,0,0,1,66,87.816a5.045,5.045,0,0,1,1.643,1.6,4.884,4.884,0,0,1,.652,2.69,6.192,6.192,0,0,1-.6,2.8,5.684,5.684,0,0,1-1.617,1.983,6.873,6.873,0,0,1-2.363,1.168,10.851,10.851,0,0,1-6.317-.19A8.7,8.7,0,0,1,54.41,96.02l3.016-3.314a4.4,4.4,0,0,0,1.644,1.345,4.691,4.691,0,0,0,2.051.475,4.614,4.614,0,0,0,1.046-.123,3.367,3.367,0,0,0,.951-.366,2.062,2.062,0,0,0,.679-.625,1.563,1.563,0,0,0,.258-.9,1.627,1.627,0,0,0-.665-1.372,6.152,6.152,0,0,0-1.672-.857q-1-.351-2.173-.705a9.761,9.761,0,0,1-2.174-.952,5.222,5.222,0,0,1-1.67-1.575,4.508,4.508,0,0,1-.666-2.581,5.787,5.787,0,0,1,.611-2.717A5.9,5.9,0,0,1,57.277,79.8a7.073,7.073,0,0,1,2.35-1.182,9.636,9.636,0,0,1,2.743-.393,10.791,10.791,0,0,1,3.152.461,7.285,7.285,0,0,1,2.744,1.549Z" fill="#0a213c"/>
      <path id="Path_45643" data-name="Path 45643" d="M6.377,109.389H5.005a.6.6,0,0,1-.565-.305l-1.718-2.616a.615.615,0,0,0-.211-.209.753.753,0,0,0-.342-.062h-.65v3.192H0V101.22H2.491a5.171,5.171,0,0,1,1.426.173,2.7,2.7,0,0,1,.977.483,1.882,1.882,0,0,1,.563.743,2.59,2.59,0,0,1,.059,1.731,2.273,2.273,0,0,1-.35.667,2.39,2.39,0,0,1-.565.525,2.84,2.84,0,0,1-.766.356,1.414,1.414,0,0,1,.5.474Zm-3.909-4.282A2.373,2.373,0,0,0,3.217,105a1.457,1.457,0,0,0,.525-.3,1.188,1.188,0,0,0,.308-.449,1.547,1.547,0,0,0,.1-.571,1.159,1.159,0,0,0-.41-.954,1.959,1.959,0,0,0-1.251-.334H1.519v2.712Z" fill="#0a213c"/>
      <path id="Path_45644" data-name="Path 45644" d="M26.393,108.135v1.254H21.608V101.22h1.52v6.915Z" fill="#0a213c"/>
      <path id="Path_45645" data-name="Path 45645" d="M40.856,102.58a.522.522,0,0,1-.144.172.32.32,0,0,1-.189.054.483.483,0,0,1-.257-.088c-.093-.058-.2-.123-.331-.195a2.749,2.749,0,0,0-.449-.194,1.868,1.868,0,0,0-.607-.088,1.81,1.81,0,0,0-.554.076,1.169,1.169,0,0,0-.4.212.841.841,0,0,0-.24.325,1.062,1.062,0,0,0-.079.415.718.718,0,0,0,.161.48,1.349,1.349,0,0,0,.426.328,4.051,4.051,0,0,0,.6.243c.226.071.457.148.695.229a6.338,6.338,0,0,1,.694.282,2.414,2.414,0,0,1,.6.407,1.839,1.839,0,0,1,.426.6,2.084,2.084,0,0,1,.161.865,2.825,2.825,0,0,1-.189,1.037,2.382,2.382,0,0,1-.553.841,2.6,2.6,0,0,1-.89.565,3.283,3.283,0,0,1-1.2.206,3.871,3.871,0,0,1-.769-.076,4.087,4.087,0,0,1-.726-.217,3.944,3.944,0,0,1-.652-.339,3.159,3.159,0,0,1-.542-.441l.446-.729a.485.485,0,0,1,.147-.133.375.375,0,0,1,.192-.053.533.533,0,0,1,.305.116q.164.115.39.257a3.021,3.021,0,0,0,.528.257,2.032,2.032,0,0,0,.726.116A1.49,1.49,0,0,0,39.6,107.8a1.105,1.105,0,0,0,.356-.885.822.822,0,0,0-.161-.525,1.312,1.312,0,0,0-.426-.342,3.205,3.205,0,0,0-.605-.234q-.339-.1-.689-.209a6.114,6.114,0,0,1-.689-.271,2.237,2.237,0,0,1-.6-.413,1.866,1.866,0,0,1-.426-.635,2.411,2.411,0,0,1-.161-.941,2.224,2.224,0,0,1,.178-.87,2.25,2.25,0,0,1,.517-.751,2.509,2.509,0,0,1,.836-.525,3.065,3.065,0,0,1,1.141-.2,3.8,3.8,0,0,1,1.333.226,3.008,3.008,0,0,1,1.04.632Z" fill="#0a213c"/>
      <path id="Path_45646" data-name="Path 45646" d="M48.284,102.469H45.821v6.92H44.3v-6.92H41.838V101.22h6.446Z" fill="#0a213c"/>
      <path id="Path_45647" data-name="Path 45647" d="M60.967,102.469H58.5v6.92h-1.52v-6.92H54.521V101.22h6.446Z" fill="#0a213c"/>
      <path id="Path_45648" data-name="Path 45648" d="M66.65,104.581v1.305H63.222v2.2h4.016v1.306h-5.45v-4.809Z" fill="#0a213c" fill-rule="evenodd"/>
      <rect id="Rectangle_17486" data-name="Rectangle 17486" width="5.391" height="1.305" transform="translate(61.788 101.159)" fill="#0a213c"/>
      <path id="Path_45649" data-name="Path 45649" d="M34.861,104.581v1.305H31.433v2.2h4.016v1.306H30v-4.809Z" fill="#0a213c" fill-rule="evenodd"/>
      <rect id="Rectangle_17487" data-name="Rectangle 17487" width="5.391" height="1.305" transform="translate(29.998 101.159)" fill="#0a213c"/>
      <path id="Path_45650" data-name="Path 45650" d="M52.351,101.22H50.8l-3.214,8.169h1.186a.488.488,0,0,0,.322-.108.532.532,0,0,0,.175-.237l.61-1.666.4-1.074.989-2.706c.048-.124.1-.27.152-.437s.1-.348.153-.54c.052.192.1.371.157.537s.1.309.153.429l.994,2.717.39,1.074.611,1.666a.61.61,0,0,0,.186.246.5.5,0,0,0,.322.1H55.56Z" fill="#0a213c"/>
      <path id="Path_45651" data-name="Path 45651" d="M17.748,101.253H16.2l-3.214,8.169h1.186a.488.488,0,0,0,.322-.108.532.532,0,0,0,.175-.237l.61-1.666.4-1.074.989-2.706c.048-.124.1-.27.152-.437s.1-.348.153-.54c.052.192.1.371.157.537s.1.309.153.429l.994,2.717.39,1.074.611,1.666a.61.61,0,0,0,.186.246.5.5,0,0,0,.322.1h1.175Z" fill="#0a213c"/>
      <path id="Path_45652" data-name="Path 45652" d="M11.8,104.581v1.305H8.377v2.2h4.016v1.306H6.943v-4.809Z" fill="#0a213c" fill-rule="evenodd"/>
      <rect id="Rectangle_17488" data-name="Rectangle 17488" width="5.391" height="1.305" transform="translate(6.942 101.159)" fill="#0a213c"/>
    </g>
  </g>
</svg>
