<svg xmlns="http://www.w3.org/2000/svg" width="71.617" height="113.644" viewBox="0 0 71.617 113.644">
  <g id="Group_38591" data-name="Group 38591" transform="translate(0.498 0.497)">
    <g id="Group_38590" data-name="Group 38590" transform="translate(0 0.001)">
      <path id="Union_6" data-name="Union 6" d="M28.689,74.8V69.65h5.15V74.8Zm-7.6,0V69.65h5.148V74.8ZM0,69.461,4.125,65.92h.037v-.033l1.26-1.078L20.533,51.836l5.313-4.557.146.176,2.559,2.326-2.559,2.234-4.48,3.85L5.422,69.67l-1.26,1.076L0,74.32Zm58.678-.348-4.1-3.535-5.459-4.7L43.66,56.174l-5.459-4.7-5.453-4.7-5.459-4.7-1.443-1.24L21.83,44.279l-5.459,4.68-5.459,4.686L5.453,58.33,0,63.014V0H5.453V53.465l5.459-4.682V0h5.459V44.1l5.459-4.68V0h5.459V37.2l5.459,4.7V0H38.2v46.6l5.459,4.7V0h5.459V56.008l5.459,4.7V0h.09A7.859,7.859,0,0,1,57.416.48a21.468,21.468,0,0,1,2.621,1.2V65.412l4.1,3.527a20.735,20.735,0,0,1-3,2.291ZM65.111,39.6a20.959,20.959,0,0,1,0,28.318ZM28.689,67.115V61.971h5.15v5.145Zm-7.6,0V61.971h5.148v5.145ZM65.111,5.564a20.959,20.959,0,0,1,0,28.318Z" transform="translate(0.002)" fill="#fff" stroke="rgba(0,0,0,0)" stroke-width="1"/>
      <path id="Path_45639" data-name="Path 45639" d="M.021,78.714H7.437a18.851,18.851,0,0,1,2.6.182,7.119,7.119,0,0,1,2.347.731,4.492,4.492,0,0,1,1.684,1.531,4.7,4.7,0,0,1,.646,2.612,4.173,4.173,0,0,1-.941,2.8,5.174,5.174,0,0,1-2.487,1.586v.056a5.7,5.7,0,0,1,1.785.548,4.763,4.763,0,0,1,1.376,1.04,4.443,4.443,0,0,1,.885,1.475,5.186,5.186,0,0,1,.309,1.8,4.772,4.772,0,0,1-.674,2.625,5.308,5.308,0,0,1-1.742,1.7,7.654,7.654,0,0,1-2.4.926,12.879,12.879,0,0,1-2.655.281H.021ZM4.4,86.664H7.578a4.431,4.431,0,0,0,1-.112,2.761,2.761,0,0,0,.884-.365,1.909,1.909,0,0,0,.633-.675A2.016,2.016,0,0,0,10.33,84.5a1.841,1.841,0,0,0-.267-1.025,1.864,1.864,0,0,0-.688-.632,3.283,3.283,0,0,0-.955-.324,5.777,5.777,0,0,0-1.04-.1H4.4Zm0,8.232H8.336a4.884,4.884,0,0,0,1.026-.113,2.757,2.757,0,0,0,.941-.393,2.23,2.23,0,0,0,.688-.731,2.106,2.106,0,0,0,.267-1.1,1.756,1.756,0,0,0-.351-1.137,2.225,2.225,0,0,0-.885-.661,4.561,4.561,0,0,0-1.152-.309,8.619,8.619,0,0,0-1.152-.084H4.4Z" transform="translate(0.001 2.678)" fill="#fff"/>
      <path id="Path_45640" data-name="Path 45640" d="M17.788,78.714H22.17V94.559H30.29V98.6h-12.5Z" transform="translate(0.605 2.678)" fill="#fff"/>
      <rect id="Rectangle_17485" data-name="Rectangle 17485" width="4.382" height="19.89" transform="translate(33.255 81.392)" fill="#fff"/>
      <path id="Path_45641" data-name="Path 45641" d="M50.138,83.591a3.118,3.118,0,0,0-1.447-1,5.2,5.2,0,0,0-1.728-.324,4.548,4.548,0,0,0-.982.113,3.765,3.765,0,0,0-.955.352,2.087,2.087,0,0,0-.731.632,1.749,1.749,0,0,0,.394,2.332,6.4,6.4,0,0,0,1.7.815q1.025.337,2.206.674a9.065,9.065,0,0,1,2.206.955A5.217,5.217,0,0,1,52.5,89.8a5.05,5.05,0,0,1,.674,2.782,6.4,6.4,0,0,1-.617,2.894,5.877,5.877,0,0,1-1.672,2.05,7.106,7.106,0,0,1-2.443,1.208,11.22,11.22,0,0,1-6.532-.2,9,9,0,0,1-3.091-1.911L41.935,93.2a4.545,4.545,0,0,0,1.7,1.391,4.851,4.851,0,0,0,2.121.491,4.771,4.771,0,0,0,1.082-.127,3.482,3.482,0,0,0,.983-.378,2.132,2.132,0,0,0,.7-.646A1.616,1.616,0,0,0,48.789,93a1.683,1.683,0,0,0-.688-1.419,6.362,6.362,0,0,0-1.729-.886q-1.039-.363-2.247-.729a10.094,10.094,0,0,1-2.248-.984,5.4,5.4,0,0,1-1.727-1.629,4.661,4.661,0,0,1-.689-2.669,5.984,5.984,0,0,1,.632-2.809,6.1,6.1,0,0,1,1.687-2.023,7.313,7.313,0,0,1,2.43-1.222,9.964,9.964,0,0,1,2.836-.406,11.158,11.158,0,0,1,3.259.477,7.533,7.533,0,0,1,2.837,1.6Z" transform="translate(1.321 2.662)" fill="#fff"/>
      <path id="Path_45642" data-name="Path 45642" d="M65.732,83.591a3.118,3.118,0,0,0-1.447-1,5.2,5.2,0,0,0-1.728-.324,4.547,4.547,0,0,0-.982.113,3.765,3.765,0,0,0-.955.352,2.087,2.087,0,0,0-.731.632,1.749,1.749,0,0,0,.394,2.332,6.388,6.388,0,0,0,1.7.815q1.025.337,2.206.674a9.083,9.083,0,0,1,2.206.955,5.217,5.217,0,0,1,1.7,1.657,5.05,5.05,0,0,1,.674,2.782,6.4,6.4,0,0,1-.617,2.894,5.877,5.877,0,0,1-1.672,2.05,7.106,7.106,0,0,1-2.443,1.208,11.22,11.22,0,0,1-6.532-.2,9,9,0,0,1-3.091-1.911L57.529,93.2a4.545,4.545,0,0,0,1.7,1.391,4.851,4.851,0,0,0,2.121.491,4.771,4.771,0,0,0,1.082-.127,3.482,3.482,0,0,0,.983-.378,2.132,2.132,0,0,0,.7-.646A1.616,1.616,0,0,0,64.383,93a1.683,1.683,0,0,0-.688-1.419,6.361,6.361,0,0,0-1.729-.886q-1.039-.363-2.247-.729a10.094,10.094,0,0,1-2.248-.984,5.4,5.4,0,0,1-1.727-1.629,4.661,4.661,0,0,1-.689-2.669,5.984,5.984,0,0,1,.632-2.809,6.1,6.1,0,0,1,1.687-2.023,7.313,7.313,0,0,1,2.43-1.222,9.964,9.964,0,0,1,2.836-.406A11.158,11.158,0,0,1,65.9,78.7a7.533,7.533,0,0,1,2.837,1.6Z" transform="translate(1.852 2.662)" fill="#fff"/>
      <path id="Path_45643" data-name="Path 45643" d="M6.594,109.667H5.175a.622.622,0,0,1-.584-.315l-1.776-2.705a.636.636,0,0,0-.218-.216.779.779,0,0,0-.354-.064H1.571v3.3H0V101.22H2.576a5.347,5.347,0,0,1,1.475.179,2.792,2.792,0,0,1,1.01.5,1.946,1.946,0,0,1,.582.768,2.678,2.678,0,0,1,.061,1.79,2.35,2.35,0,0,1-.362.69,2.471,2.471,0,0,1-.584.543,2.936,2.936,0,0,1-.792.368,1.462,1.462,0,0,1,.514.49Zm-4.042-4.428a2.454,2.454,0,0,0,.774-.111,1.507,1.507,0,0,0,.543-.307,1.228,1.228,0,0,0,.318-.464,1.6,1.6,0,0,0,.105-.59,1.2,1.2,0,0,0-.424-.986,2.026,2.026,0,0,0-1.294-.345H1.571v2.8Z" transform="translate(0 3.444)" fill="#fff"/>
      <path id="Path_45644" data-name="Path 45644" d="M26.556,108.37v1.3H21.608V101.22H23.18v7.15Z" transform="translate(0.735 3.444)" fill="#fff"/>
      <path id="Path_45645" data-name="Path 45645" d="M41.026,102.634a.54.54,0,0,1-.149.178.33.33,0,0,1-.2.056.5.5,0,0,1-.266-.091c-.1-.06-.21-.127-.342-.2a2.842,2.842,0,0,0-.464-.2,1.932,1.932,0,0,0-.628-.091,1.871,1.871,0,0,0-.573.079,1.209,1.209,0,0,0-.412.219.87.87,0,0,0-.248.336,1.1,1.1,0,0,0-.082.429.743.743,0,0,0,.166.5,1.4,1.4,0,0,0,.44.339,4.189,4.189,0,0,0,.626.251c.234.073.473.153.719.237a6.553,6.553,0,0,1,.718.292,2.5,2.5,0,0,1,.626.421A1.9,1.9,0,0,1,41.4,106a2.155,2.155,0,0,1,.166.894,2.922,2.922,0,0,1-.2,1.072,2.463,2.463,0,0,1-.572.87,2.691,2.691,0,0,1-.92.584,3.4,3.4,0,0,1-1.244.213,4,4,0,0,1-.8-.079,4.226,4.226,0,0,1-.751-.224,4.078,4.078,0,0,1-.674-.351,3.266,3.266,0,0,1-.56-.456l.461-.754a.5.5,0,0,1,.152-.138.388.388,0,0,1,.2-.055.551.551,0,0,1,.315.12q.169.119.4.266a3.124,3.124,0,0,0,.546.266,2.1,2.1,0,0,0,.751.12,1.54,1.54,0,0,0,1.039-.318,1.143,1.143,0,0,0,.368-.915.85.85,0,0,0-.166-.543,1.356,1.356,0,0,0-.44-.354,3.314,3.314,0,0,0-.626-.242q-.351-.1-.712-.216a6.321,6.321,0,0,1-.712-.28,2.313,2.313,0,0,1-.626-.427,1.929,1.929,0,0,1-.44-.657,2.493,2.493,0,0,1-.166-.973,2.3,2.3,0,0,1,.184-.9,2.327,2.327,0,0,1,.535-.777,2.6,2.6,0,0,1,.864-.543,3.17,3.17,0,0,1,1.18-.2,3.932,3.932,0,0,1,1.378.234,3.11,3.11,0,0,1,1.075.654Z" transform="translate(1.221 3.437)" fill="#fff"/>
      <path id="Path_45646" data-name="Path 45646" d="M48.5,102.511H45.956v7.156H44.384v-7.156H41.838V101.22H48.5Z" transform="translate(1.424 3.444)" fill="#fff"/>
      <path id="Path_45647" data-name="Path 45647" d="M61.186,102.511H58.639v7.156H57.068v-7.156H54.521V101.22h6.665Z" transform="translate(1.856 3.444)" fill="#fff"/>
      <path id="Path_45648" data-name="Path 45648" d="M66.815,104.581v1.349H63.271V108.2h4.153v1.35H61.788v-4.973Z" transform="translate(2.103 3.559)" fill="#fff" fill-rule="evenodd"/>
      <rect id="Rectangle_17486" data-name="Rectangle 17486" width="5.575" height="1.349" transform="translate(63.891 104.601)" fill="#fff"/>
      <path id="Path_45649" data-name="Path 45649" d="M35.026,104.581v1.349H31.482V108.2h4.153v1.35H30v-4.973Z" transform="translate(1.021 3.559)" fill="#fff" fill-rule="evenodd"/>
      <rect id="Rectangle_17487" data-name="Rectangle 17487" width="5.575" height="1.349" transform="translate(31.019 104.601)" fill="#fff"/>
      <path id="Path_45650" data-name="Path 45650" d="M52.513,101.22h-1.6l-3.323,8.447h1.226a.5.5,0,0,0,.333-.112.55.55,0,0,0,.181-.245l.631-1.723.409-1.111,1.023-2.8c.05-.128.1-.279.157-.452s.107-.36.158-.558c.054.2.109.384.162.555s.108.32.158.444l1.028,2.809.4,1.111.632,1.723a.631.631,0,0,0,.192.254.518.518,0,0,0,.333.1h1.215Z" transform="translate(1.62 3.444)" fill="#fff"/>
      <path id="Path_45651" data-name="Path 45651" d="M17.91,101.253h-1.6L12.986,109.7h1.226a.5.5,0,0,0,.333-.112.55.55,0,0,0,.181-.245l.631-1.723.409-1.111,1.023-2.8c.05-.128.1-.279.157-.452s.107-.36.158-.558c.054.2.109.384.162.555s.108.32.158.444l1.028,2.809.4,1.111.632,1.723a.631.631,0,0,0,.192.254.518.518,0,0,0,.333.1h1.215Z" transform="translate(0.442 3.445)" fill="#fff"/>
      <path id="Path_45652" data-name="Path 45652" d="M11.97,104.581v1.349H8.425V108.2h4.153v1.35H6.943v-4.973Z" transform="translate(0.236 3.559)" fill="#fff" fill-rule="evenodd"/>
      <rect id="Rectangle_17488" data-name="Rectangle 17488" width="5.575" height="1.349" transform="translate(7.178 104.601)" fill="#fff"/>
    </g>
  </g>
</svg>
