<svg xmlns="http://www.w3.org/2000/svg" width="52.448" height="52.448" viewBox="0 0 52.448 52.448">
  <g id="map_3_" data-name="map (3)" transform="translate(0 -0.5)">
    <path id="Path_66" data-name="Path 66" d="M52.322,50.8,43.067,29.206a1.543,1.543,0,0,0-1.418-.935H35.772c2.379-4.156,4.335-8.756,4.335-12.648,0-20.042-27.766-20.286-27.766,0,0,3.892,1.956,8.492,4.335,12.648H10.8a1.542,1.542,0,0,0-1.418.935L.126,50.8a1.543,1.543,0,0,0,1.418,2.15H50.9A1.543,1.543,0,0,0,52.322,50.8ZM40.632,31.356,45.2,42.01c-.143.074-15.007,7.793-15.113,7.854H26.857c-.082-.091.612.606-9.441-9.446L23,37.56c1.138,1.453,1.936,2.376,2.06,2.519a1.543,1.543,0,0,0,2.328,0,84.807,84.807,0,0,0,6.5-8.724ZM26.224,3.593c5.2,0,10.8,3.765,10.8,12.03,0,6.95-7.791,17.292-10.8,21.025-3.007-3.733-10.8-14.075-10.8-21.025C15.427,7.313,20.849,3.593,26.224,3.593ZM11.816,31.356c7.472,0,6.623,0,6.743,0,.869,1.342,1.741,2.594,2.553,3.708L7.17,42.2ZM5.267,46.636l9.263-4.741,7.97,7.969H3.883Zm31.5,3.228,9.646-5.011,2.148,5.011Zm0,0" transform="translate(0 0)" fill="#00b8c6"/>
    <path id="Path_67" data-name="Path 67" d="M220.079,95.545a4.628,4.628,0,1,0-4.627,4.627A4.633,4.633,0,0,0,220.079,95.545Zm-6.17,0a1.543,1.543,0,1,1,1.543,1.542A1.544,1.544,0,0,1,213.909,95.545Zm0,0" transform="translate(-189.228 -81.156)" fill="#00b8c6"/>
  </g>
</svg>
