<svg id="maps-and-flags_8_" data-name="maps-and-flags (8)" xmlns="http://www.w3.org/2000/svg" width="19.674" height="27.163" viewBox="0 0 19.674 27.163">
  <g id="Group_209" data-name="Group 209" transform="translate(0)">
    <g id="Group_208" data-name="Group 208">
      <path id="Path_62" data-name="Path 62" d="M80.41,0a9.848,9.848,0,0,0-9.837,9.837c0,6.732,8.8,16.614,9.178,17.031a.886.886,0,0,0,1.318,0c.375-.417,9.178-10.3,9.178-17.031A9.848,9.848,0,0,0,80.41,0Zm0,24.92C77.447,21.4,72.344,14.457,72.344,9.837a8.066,8.066,0,1,1,16.131,0C88.476,14.457,83.374,21.4,80.41,24.92Z" transform="translate(-70.573)" fill="#fff"/>
    </g>
  </g>
  <g id="Group_211" data-name="Group 211" transform="translate(4.888 4.888)">
    <g id="Group_210" data-name="Group 210">
      <path id="Path_63" data-name="Path 63" d="M167.657,92.134a4.949,4.949,0,1,0,4.949,4.949A4.955,4.955,0,0,0,167.657,92.134Zm0,8.127a3.178,3.178,0,1,1,3.178-3.178A3.181,3.181,0,0,1,167.657,100.261Z" transform="translate(-162.708 -92.134)" fill="#fff"/>
    </g>
  </g>
</svg>
