<svg id="_019---Finance-Accounting" data-name="019---Finance-Accounting" xmlns="http://www.w3.org/2000/svg" width="73.487" height="73.484" viewBox="0 0 73.487 73.484">
  <path id="Shape" d="M57.563,39.254V19.388a3.674,3.674,0,0,0-.311-1.47c-.012-.029-.031-.054-.044-.081a3.688,3.688,0,0,0-.726-1.055L48.132,8.43A3.688,3.688,0,0,0,47.078,7.7c-.027-.013-.051-.032-.081-.044a3.674,3.674,0,0,0-1.473-.311H29.394V3.674A3.674,3.674,0,0,0,25.72,0H3.674A3.674,3.674,0,0,0,0,3.674V35.518a3.674,3.674,0,0,0,3.674,3.674h9.8v23.27a3.674,3.674,0,0,0,3.674,3.674h25.14A17.135,17.135,0,1,0,57.563,39.254ZM53.382,17.146H48.99a1.225,1.225,0,0,1-1.225-1.225V11.53ZM2.449,35.518V3.674A1.225,1.225,0,0,1,3.674,2.449H25.72a1.225,1.225,0,0,1,1.225,1.225V35.518a1.225,1.225,0,0,1-1.225,1.225H3.674A1.225,1.225,0,0,1,2.449,35.518Zm14.7,28.169a1.225,1.225,0,0,1-1.225-1.225V39.192h9.8a3.674,3.674,0,0,0,3.674-3.674V9.8H45.315v6.124A3.674,3.674,0,0,0,48.99,19.6h6.124V39.254A17.088,17.088,0,0,0,40.87,63.687Zm39.192,7.348a14.7,14.7,0,1,1,14.7-14.7A14.7,14.7,0,0,1,56.338,71.035Z" fill="#00b8c6"/>
  <path id="Shape-2" data-name="Shape" d="M6.449,18.7h14.7A2.449,2.449,0,0,0,23.6,16.247v-9.8A2.449,2.449,0,0,0,21.146,4H6.449A2.449,2.449,0,0,0,4,6.449v9.8A2.449,2.449,0,0,0,6.449,18.7Zm0-12.247h14.7v9.8H6.449Z" transform="translate(0.899 0.899)" fill="#00b8c6"/>
  <path id="Shape-3" data-name="Shape" d="M50.8,43.348a1.225,1.225,0,0,0,2.449,0,6.135,6.135,0,0,0-4.9-6v-.122a1.225,1.225,0,0,0-2.449,0v.122a6.124,6.124,0,0,0,0,12V56.6a3.674,3.674,0,0,1-2.449-3.45,1.225,1.225,0,1,0-2.449,0,6.135,6.135,0,0,0,4.9,6v.122a1.225,1.225,0,0,0,2.449,0v-.122a6.124,6.124,0,0,0,0-12V39.9A3.674,3.674,0,0,1,50.8,43.348Zm-7.348,0A3.674,3.674,0,0,1,45.9,39.9v6.9A3.674,3.674,0,0,1,43.451,43.348Zm7.348,9.8A3.674,3.674,0,0,1,48.35,56.6V49.7A3.674,3.674,0,0,1,50.8,53.146Z" transform="translate(9.213 8.091)" fill="#00b8c6"/>
  <path id="Path" d="M7.674,18H5.225a1.225,1.225,0,1,0,0,2.449H7.674a1.225,1.225,0,1,0,0-2.449Z" transform="translate(0.899 4.045)" fill="#00b8c6"/>
  <path id="Path-2" data-name="Path" d="M7.674,22H5.225a1.225,1.225,0,0,0,0,2.449H7.674a1.225,1.225,0,0,0,0-2.449Z" transform="translate(0.899 4.944)" fill="#00b8c6"/>
  <path id="Path-3" data-name="Path" d="M7.674,26H5.225a1.225,1.225,0,1,0,0,2.449H7.674a1.225,1.225,0,1,0,0-2.449Z" transform="translate(0.899 5.843)" fill="#00b8c6"/>
  <path id="Path-4" data-name="Path" d="M13.674,18H11.225a1.225,1.225,0,1,0,0,2.449h2.449a1.225,1.225,0,1,0,0-2.449Z" transform="translate(2.247 4.045)" fill="#00b8c6"/>
  <path id="Path-5" data-name="Path" d="M13.674,22H11.225a1.225,1.225,0,0,0,0,2.449h2.449a1.225,1.225,0,0,0,0-2.449Z" transform="translate(2.247 4.944)" fill="#00b8c6"/>
  <path id="Path-6" data-name="Path" d="M14.9,27.225A1.225,1.225,0,0,0,13.674,26H11.225a1.225,1.225,0,1,0,0,2.449h2.449A1.225,1.225,0,0,0,14.9,27.225Z" transform="translate(2.247 5.843)" fill="#00b8c6"/>
  <path id="Path-7" data-name="Path" d="M19.674,18H17.225a1.225,1.225,0,1,0,0,2.449h2.449a1.225,1.225,0,1,0,0-2.449Z" transform="translate(3.596 4.045)" fill="#00b8c6"/>
  <path id="Path-8" data-name="Path" d="M19.674,22H17.225a1.225,1.225,0,0,0,0,2.449h2.449a1.225,1.225,0,0,0,0-2.449Z" transform="translate(3.596 4.944)" fill="#00b8c6"/>
  <path id="Path-9" data-name="Path" d="M19.674,26H17.225a1.225,1.225,0,1,0,0,2.449h2.449a1.225,1.225,0,1,0,0-2.449Z" transform="translate(3.596 5.843)" fill="#00b8c6"/>
  <path id="Path-10" data-name="Path" d="M28.225,22.449H44.146a1.225,1.225,0,1,0,0-2.449H28.225a1.225,1.225,0,0,0,0,2.449Z" transform="translate(6.068 4.495)" fill="#00b8c6"/>
  <path id="Path-11" data-name="Path" d="M28.225,27.449H44.146a1.225,1.225,0,1,0,0-2.449H28.225a1.225,1.225,0,1,0,0,2.449Z" transform="translate(6.068 5.619)" fill="#00b8c6"/>
  <path id="Path-12" data-name="Path" d="M28.225,32.449H44.146a1.225,1.225,0,0,0,0-2.449H28.225a1.225,1.225,0,0,0,0,2.449Z" transform="translate(6.068 6.742)" fill="#00b8c6"/>
  <path id="Path-13" data-name="Path" d="M34.371,35H17.225a1.225,1.225,0,1,0,0,2.449H34.371a1.225,1.225,0,0,0,0-2.449Z" transform="translate(3.596 7.866)" fill="#00b8c6"/>
  <path id="Path-14" data-name="Path" d="M31.922,40h-14.7a1.225,1.225,0,1,0,0,2.449h14.7a1.225,1.225,0,0,0,0-2.449Z" transform="translate(3.596 8.99)" fill="#00b8c6"/>
  <path id="Path-15" data-name="Path" d="M30.7,45H17.225a1.225,1.225,0,1,0,0,2.449H30.7A1.225,1.225,0,1,0,30.7,45Z" transform="translate(3.596 10.113)" fill="#00b8c6"/>
</svg>
