<svg xmlns="http://www.w3.org/2000/svg" width="76.967" height="79.104" viewBox="0 0 76.967 79.104">
  <g id="mortgage" transform="translate(-6.163 -4.557)">
    <path id="Path_45704" data-name="Path 45704" d="M81.405,52.145a5.9,5.9,0,0,0-8.327,0l-.084.084V29.664l2.634,1.747a1.165,1.165,0,0,0,1.614-.326l3.673-5.536a1.164,1.164,0,0,0-.326-1.614L51.677,4.751a1.164,1.164,0,0,0-1.287,0L21.478,23.935a1.165,1.165,0,0,0-.327,1.614l3.674,5.536a1.164,1.164,0,0,0,1.614.326l2.634-1.747V52.22H21.266V50.684A1.164,1.164,0,0,0,20.1,49.519H7.327a1.164,1.164,0,0,0,0,2.329h11.61V81.332H7.327a1.164,1.164,0,0,0,0,2.329H20.1A1.164,1.164,0,0,0,21.267,82.5v-1.54h36.35a7.925,7.925,0,0,0,5.642-2.337L81.405,60.472a5.887,5.887,0,0,0,0-8.327ZM26.121,28.827l-2.385-3.593,27.3-18.115,27.3,18.113-2.385,3.593-24.269-16.1a1.164,1.164,0,0,0-1.287,0Zm5.28-.708L51.034,15.092,70.666,28.119V54.555l-8.014,8.017a5.892,5.892,0,0,0-5.5-3.793H43.773L40.95,55.852a11.9,11.9,0,0,0-8.529-3.628H31.4ZM79.758,58.825,61.613,76.973a5.615,5.615,0,0,1-3.992,1.655H21.266V54.552H32.421a9.564,9.564,0,0,1,6.853,2.914l3.167,3.286a1.163,1.163,0,0,0,.838.357H57.155a3.56,3.56,0,1,1,0,7.12H40.307a1.164,1.164,0,1,0,0,2.329H57.155a5.893,5.893,0,0,0,5.815-5.009L74.724,53.794a3.559,3.559,0,1,1,5.033,5.033Z" fill="#fff"/>
    <path id="Path_45705" data-name="Path 45705" d="M67.459,63.1a12.21,12.21,0,1,0-12.21-12.21A12.21,12.21,0,0,0,67.459,63.1Zm0-22.09a9.882,9.882,0,1,1-9.882,9.881,9.881,9.881,0,0,1,9.882-9.881Z" transform="translate(-16.425 -11.419)" fill="#fff"/>
    <path id="Path_45706" data-name="Path 45706" d="M67.129,55.977l-1.359,1.68a7.74,7.74,0,0,0,4.4,2.019v1.264h1.717V59.734c2.737-.189,4.3-1.775,4.3-3.945,0-2.3-1.717-3.189-4.3-3.775V48.467a6.167,6.167,0,0,1,2.68,1.416l1.284-1.737a7.025,7.025,0,0,0-3.964-1.755V45.219H70.168v1.152c-2.321.283-3.888,1.85-3.888,3.888,0,2.227,1.567,3.057,3.888,3.66V57.6a6.448,6.448,0,0,1-3.039-1.621Zm4.756-1.624c1.34.4,1.944.793,1.944,1.663,0,.831-.66,1.548-1.944,1.7Zm-3.228-4.3a1.782,1.782,0,0,1,1.51-1.623v3.133C69.149,51.2,68.658,50.806,68.658,50.051Z" transform="translate(-19.946 -13.606)" fill="#fff"/>
  </g>
</svg>
