<?xml version="1.0" encoding="utf-8"?>
<!-- Generator: Adobe Illustrator 26.3.1, SVG Export Plug-In . SVG Version: 6.00 Build 0)  -->
<svg version="1.1" id="Layer_1" xmlns="http://www.w3.org/2000/svg" xmlns:xlink="http://www.w3.org/1999/xlink" x="0px" y="0px"
	 viewBox="0 0 26.3 26.3" style="enable-background:new 0 0 26.3 26.3;" xml:space="preserve">
<style type="text/css">
	.st0{fill:#FFFFFF;}
</style>
<path class="st0" d="M20.3,17.3c-0.1-0.1-0.1-0.2-0.2-0.2l-2.5-2.5c-0.4-0.5-1-0.8-1.7-0.8c-0.6,0-1.3,0.3-1.7,0.8L12.9,16
	c-0.1-0.1-0.2-0.1-0.2-0.2c-0.2-0.1-0.3-0.2-0.4-0.2c-1.4-0.9-2.7-2.1-3.7-3.4c-0.6-0.6-1-1.1-1.3-1.8c0.3-0.3,0.7-0.6,0.9-0.9
	C8.3,9.3,8.4,9.2,8.6,9C9,8.6,9.4,8,9.4,7.3C9.4,6.7,9,6,8.6,5.6L7.4,4.4C7.2,4.3,7.1,4.1,7,4C6.7,3.7,6.3,3.4,6.1,3.1
	c-0.5-0.4-1-0.7-1.7-0.7c-0.7,0-1.3,0.2-1.7,0.7L1.1,4.7C0.6,5.3,0.2,6.1,0.1,7C0,8.2,0.3,9.4,0.7,10.5c0.8,2.1,2,4.1,3.6,5.9
	c2,2.4,4.4,4.3,7.2,5.7c1.3,0.6,2.7,1.1,4.2,1.2c0.1,0,0.2,0,0.2,0H16c1,0,2-0.4,2.7-1.2c0.2-0.3,0.5-0.6,0.8-0.8
	c0.2-0.2,0.4-0.4,0.6-0.6c0.5-0.4,0.7-0.9,0.8-1.6C20.8,18.4,20.7,17.8,20.3,17.3z M6,9.5c-0.4,0.3-0.5,0.8-0.3,1.3
	c0.4,0.9,0.9,1.7,1.5,2.4c1.2,1.5,2.5,2.7,4.1,3.7c0.2,0.1,0.4,0.2,0.6,0.3c0.2,0.1,0.3,0.2,0.5,0.2c0.2,0.1,0.3,0.2,0.6,0.2
	c0.3,0,0.6-0.2,0.8-0.4l1.6-1.6c0.2-0.2,0.3-0.2,0.6-0.3c0.2,0,0.4,0.1,0.6,0.3l2.5,2.5c0.3,0.2,0.4,0.7,0.1,1
	c0,0.1-0.1,0.1-0.2,0.2c-0.2,0.2-0.3,0.4-0.6,0.6c-0.3,0.3-0.6,0.6-0.9,0.9c-0.4,0.4-0.9,0.7-1.5,0.7c-0.1,0-0.2,0-0.2,0
	c-1.3-0.2-2.4-0.5-3.6-1c-2.6-1.3-4.8-3-6.7-5.3C4.1,13.7,3,11.9,2.2,9.8C1.8,9,1.7,8,1.7,7.1c0-0.5,0.2-0.9,0.6-1.3l1.6-1.6
	C4,4.1,4.2,4,4.4,4C4.6,4,4.8,4.1,5,4.3C5.2,4.5,5.5,4.8,5.7,5l1.8,1.8c0.2,0.1,0.2,0.3,0.2,0.6c0,0.2-0.2,0.5-0.3,0.6L7.1,8.4
	C6.7,8.8,6.3,9.1,6,9.5z"/>
</svg>
