<svg id="Page-1" xmlns="http://www.w3.org/2000/svg" width="78.874" height="78.926" viewBox="0 0 78.874 78.926">
  <g id="_020---House-Agreement" data-name="020---House-Agreement" transform="translate(0 0)">
    <path id="Shape" d="M78.874,28.829a2.524,2.524,0,0,0-1.091-2.064,2.761,2.761,0,0,0-2.5-.3l-13.5,5.087V24l.408.276a3.839,3.839,0,0,0,2.222.7,3.942,3.942,0,0,0,2.235-7.191L41.672.7A3.932,3.932,0,0,0,37.2.7L12.226,17.786a3.943,3.943,0,0,0,4.456,6.507L17.089,24v7.887l-13.474-5.4A2.629,2.629,0,0,0,0,28.921V64.414a2.629,2.629,0,0,0,2.629,2.629h.986A3.944,3.944,0,0,0,7.1,64.9l1.1-2.2,2.314,1.078a4.167,4.167,0,0,0,2.156,5.258,4.115,4.115,0,0,0,1.748.381,4.167,4.167,0,0,0,1.5-.289,4.562,4.562,0,0,0,2.34,2.485,4.68,4.68,0,0,0,1.919.421,4.549,4.549,0,0,0,1.6-.289,4.6,4.6,0,0,0,2.406,2.629,4.483,4.483,0,0,0,1.919.421,4.614,4.614,0,0,0,1.393-.223v.066a3.934,3.934,0,0,0,6.915.907l3.116,2.511a4.286,4.286,0,0,0,6.757-2.445,4.054,4.054,0,0,0,5.1-3.484,4.392,4.392,0,0,0,.565,0A4.824,4.824,0,0,0,54.739,68a5.259,5.259,0,0,0,1.617.276A5.006,5.006,0,0,0,61,61.325l8.361-3.484L71.8,62.363a3.944,3.944,0,0,0,3.457,2.051h.986a2.629,2.629,0,0,0,2.629-2.537ZM15.2,22.124a1.315,1.315,0,0,1-1.485-2.169L38.688,2.866a1.236,1.236,0,0,1,.749-.237,1.315,1.315,0,0,1,.749.237L65.163,19.955a1.309,1.309,0,1,1-1.485,2.156L40.187,6.047a1.315,1.315,0,0,0-1.5,0ZM39.437,8.716l19.719,13.5V32.864a3.615,3.615,0,0,0-.868,4.548L59.6,39.858l-3.549,1.315a3.944,3.944,0,0,1-3.655-.421L46.01,36.032V28.921a2.629,2.629,0,0,0-2.629-2.629H35.493a2.629,2.629,0,0,0-2.629,2.629V37.5a15.578,15.578,0,0,0-1.315,2.182,30.8,30.8,0,0,0-4.22.684,14.369,14.369,0,0,1-2.353.381,16.012,16.012,0,0,1-5.022-1.459l.631-1.315a3.944,3.944,0,0,0-.868-4.732V22.216Zm3.944,25.529a7.585,7.585,0,0,0-7.887.592V28.921h7.887ZM3.615,64.414H2.629V28.921l14.96,6.073a1.311,1.311,0,0,1,.657,1.854L4.759,63.717A1.315,1.315,0,0,1,3.615,64.414Zm10.109,2.2a1.551,1.551,0,0,1-.762-2.051l1.5-3.155a1.551,1.551,0,0,1,2.051-.762,1.485,1.485,0,0,1,.8.868,1.577,1.577,0,0,1,0,1.2L15.775,65.86a1.538,1.538,0,0,1-2.051.749Zm7.086,2.629a1.88,1.88,0,0,1-2.524-1.1,2.011,2.011,0,0,1,0-1.512l2.261-4.838a1.972,1.972,0,0,1,1.1-1.025,2.077,2.077,0,0,1,.684-.118,2.038,2.038,0,0,1,.828.171,2,2,0,0,1,1.025,1.117,1.946,1.946,0,0,1,0,1.512l-2.261,4.785a2,2,0,0,1-1.117,1.025Zm4.47,2.629a2,2,0,0,1-.973-2.629l1.656-3.51a2.011,2.011,0,0,1,1.1-1.025,2.077,2.077,0,0,1,.684-.118,1.814,1.814,0,0,1,.828.184,1.958,1.958,0,0,1,.96,2.616l-1.525,3.339-.105.223a1.972,1.972,0,0,1-2.629.973Zm5.377,2.471a1.379,1.379,0,0,1-.684-1.748l.408-.881L31.6,69.081a1.364,1.364,0,0,1,2.471,1.157L32.431,73.8a1.315,1.315,0,0,1-1.775.618Zm27.4-9.452a2.393,2.393,0,0,1-3.273.118l-6.389-5.6-1.512-1.315a1.236,1.236,0,0,0-.46-.263,1.012,1.012,0,0,0-.2,0,1.315,1.315,0,0,0-.789.092,1.551,1.551,0,0,0-.408.315,1.236,1.236,0,0,0-.329.92.421.421,0,0,0,0,.118,1.315,1.315,0,0,0,.408.776l6.271,5.495a2.214,2.214,0,0,1-3.024,3.234l-.145-.145-5.258-5.258a1.32,1.32,0,1,0-1.867,1.867L46.339,70.5a1.459,1.459,0,0,1,0,2.077,1.525,1.525,0,0,1-2.09,0l-1.131-1.144-1.472-1.472a1.32,1.32,0,1,0-1.867,1.867L41.251,73.3a1.617,1.617,0,0,1,.5,1.183A1.683,1.683,0,0,1,39.122,75.8l-3.5-2.708L36.44,71.3a3.931,3.931,0,0,0-4.167-5.561,5.154,5.154,0,0,0-.2-.776,4.575,4.575,0,0,0-5.193-2.918,4.588,4.588,0,0,0-6.139-3.76,4.654,4.654,0,0,0-1.7,1.117,3.944,3.944,0,0,0-1.472-1.157,4.18,4.18,0,0,0-5.548,2.038l-.486,1.078L9.386,60.339l9.386-18.693a18.706,18.706,0,0,0,6.2,1.735,15.249,15.249,0,0,0,2.853-.447c.736-.158,1.525-.315,2.353-.447l-2.156,4.838A4.68,4.68,0,0,0,30.235,53.4h.131a4.548,4.548,0,0,0,1.972.447,4.654,4.654,0,0,0,3.523-1.591l5.193-5.784,16.892,15a2.393,2.393,0,0,1,.105,3.5Zm1.315-5.771L40.3,42.4a1.315,1.315,0,0,0-1.735,1.972l.473.421-5.179,5.771a2.077,2.077,0,0,1-2.471.5H31.3a2.077,2.077,0,0,1-.881-2.629l3.05-6.757a13.054,13.054,0,0,1,3.037-4.22,4.969,4.969,0,0,1,6.31-.368l8.006,5.837a6.573,6.573,0,0,0,6.139.815L60.9,42.277l7.191,13.29Zm15.919,2.629a1.315,1.315,0,0,1-1.157-.631l-13.5-24.977a1.025,1.025,0,0,1-.066-.854,1.183,1.183,0,0,1,.71-.684l14.973-5.771V61.785Z" transform="translate(0 0)" fill="#00b8c6"/>
    <path id="Shape-2" data-name="Shape" d="M31.258,20.517A5.258,5.258,0,1,0,26,15.258,5.258,5.258,0,0,0,31.258,20.517Zm0-7.887a2.629,2.629,0,1,1-2.629,2.629A2.629,2.629,0,0,1,31.258,12.629Z" transform="translate(8.179 3.146)" fill="#00b8c6"/>
  </g>
</svg>
