<svg xmlns="http://www.w3.org/2000/svg" xmlns:xlink="http://www.w3.org/1999/xlink" width="33.297" height="36.715" viewBox="0 0 40.297 36.715">
  <defs>
    <clipPath id="clip-path">
      <rect id="Rectangle_17508" data-name="Rectangle 17508" width="40.297" height="36.715" transform="translate(0 0)" fill="#a1a5b7"/>
    </clipPath>
  </defs>
  <g id="Group_38620" data-name="Group 38620" clip-path="url(#clip-path)">
    <path id="Path_45687" data-name="Path 45687" d="M21.119,36.568a1.509,1.509,0,1,1,0-3.019h11.1a5.35,5.35,0,0,0,5.357-5.31V24.112a6,6,0,0,1,0-11.65V8.341a5.351,5.351,0,0,0-5.367-5.32H8.416A5.35,5.35,0,0,0,3.045,8.332v4.292a5.815,5.815,0,0,1,4.548,5.661,6.028,6.028,0,0,1-4.548,5.826v4.128a5.352,5.352,0,0,0,5.367,5.32h3.636a1.509,1.509,0,1,1,0,3.019H8.416A8.388,8.388,0,0,1,0,28.239V22.793a1.52,1.52,0,0,1,1.523-1.509,3.015,3.015,0,0,0,3.025-3,2.859,2.859,0,0,0-2.9-2.824H1.523a1.527,1.527,0,0,1-1.077-.445A1.509,1.509,0,0,1,0,13.953V8.328A8.385,8.385,0,0,1,8.418,0H32.2A8.388,8.388,0,0,1,40.62,8.328v5.454a1.5,1.5,0,0,1-.447,1.068,1.525,1.525,0,0,1-1.077.443,3,3,0,0,0,0,5.992A1.517,1.517,0,0,1,40.62,22.8v5.446a8.383,8.383,0,0,1-8.414,8.328ZM15.373,26.021a2.048,2.048,0,0,1-.782-1.985l.561-3.358L12.779,18.3a2.063,2.063,0,0,1-.5-2.078,1.972,1.972,0,0,1,1.593-1.385l3.274-.492,1.469-3.059a1.946,1.946,0,0,1,3.53,0l1.6,3.144a1.573,1.573,0,0,1-.634,2.094,1.459,1.459,0,0,1-1.144.108,1.513,1.513,0,0,1-.886-.758l-.672-1.318-.912,1.905a1.5,1.5,0,0,1-1.133.849l-1.966.295,1.422,1.434a1.571,1.571,0,0,1,.433,1.371l-.337,2.019,1.763-.953a1.463,1.463,0,0,1,1.4,0l1.763.953L22.5,20.407a1.581,1.581,0,0,1,.431-1.373l2.937-2.949a1.4,1.4,0,0,1,1.064-.439A1.475,1.475,0,0,1,28,16.112a1.574,1.574,0,0,1-.028,2.19L25.6,20.685l.561,3.358a2.03,2.03,0,0,1-.784,1.985,1.917,1.917,0,0,1-2.076.152l-2.927-1.6-2.931,1.582a1.88,1.88,0,0,1-.916.246,1.933,1.933,0,0,1-1.156-.39" transform="translate(0 0.143)" fill="#a1a5b7"/>
  </g>
</svg>