<svg xmlns="http://www.w3.org/2000/svg" width="17" height="17.047" viewBox="0 0 17 17.047">
  <g id="search-interface-symbol_4_" data-name="search-interface-symbol (4)" transform="translate(0.244 0.25)">
    <g id="_x34__4_" transform="translate(0.006)">
      <g id="Group_36" data-name="Group 36" transform="translate(0)">
        <path id="Path_21" data-name="Path 21" d="M16.349,15.6l-4.26-4.192a6.738,6.738,0,0,0,1.8-4.579A6.888,6.888,0,0,0,6.948,0,6.887,6.887,0,0,0,.006,6.832a6.887,6.887,0,0,0,6.942,6.832,6.981,6.981,0,0,0,4.369-1.526l4.277,4.208a.54.54,0,0,0,.755,0A.52.52,0,0,0,16.349,15.6Zm-9.4-2.99A5.828,5.828,0,0,1,1.074,6.832,5.828,5.828,0,0,1,6.948,1.051a5.828,5.828,0,0,1,5.874,5.781A5.828,5.828,0,0,1,6.948,12.612Z" transform="translate(-0.006)" fill="#fff" stroke="#fff" stroke-width="0.5"/>
      </g>
    </g>
  </g>
</svg>
