<svg xmlns="http://www.w3.org/2000/svg" xmlns:xlink="http://www.w3.org/1999/xlink" width="30.289" height="37.773" viewBox="0 0 39.289 46.773">
  <defs>
    <clipPath id="clip-path">
      <rect id="Rectangle_17507" data-name="Rectangle 17507" width="39.289" height="46.773" transform="translate(0 0)" fill="#a1a5b7"/>
    </clipPath>
  </defs>
  <g id="Group_38618" data-name="Group 38618" clip-path="url(#clip-path)">
    <path id="Path_45686" data-name="Path 45686" d="M19.054,46.567l-8.419-4.409a19.974,19.974,0,0,1-5.7-4.273A19.28,19.28,0,0,1,0,25.041a1.773,1.773,0,0,1,3.543,0,15.906,15.906,0,0,0,4.065,10.58,16.421,16.421,0,0,0,4.715,3.508l7.57,3.976,7.554-3.976a16.368,16.368,0,0,0,4.713-3.508,15.886,15.886,0,0,0,4.058-10.573V9.522a.782.782,0,0,0-.536-.737l-15.536-5.3a.832.832,0,0,0-.533,0L4.079,8.785a.782.782,0,0,0-.536.737v4.444a1.773,1.773,0,0,1-3.543,0V9.522A4.247,4.247,0,0,1,2.907,5.546L18.441.235a4.518,4.518,0,0,1,2.877,0l15.536,5.3a4.245,4.245,0,0,1,2.9,3.99V25.053a19.27,19.27,0,0,1-4.911,12.835,19.792,19.792,0,0,1-5.7,4.282l-8.419,4.4a1.813,1.813,0,0,1-1.672,0M16.949,28.3l-4.467-4.341a1.689,1.689,0,0,1-.044-2.388l.044-.044a1.8,1.8,0,0,1,2.5,0L18.2,24.653l7.952-7.718a1.807,1.807,0,0,1,2.5,0,1.689,1.689,0,0,1,.044,2.388l-.044.044L19.461,28.3a1.8,1.8,0,0,1-2.5,0Z" transform="translate(-0.147 -0.002)" fill="#a1a5b7"/>
  </g>
</svg>