<svg xmlns="http://www.w3.org/2000/svg" width="24" height="24" viewBox="0 0 24 24">
  <g id="telephone-call" transform="translate(-2 -2)">
    <path id="Path_45657" data-name="Path 45657" d="M25.48,20.309c-.749-.628-5.143-3.411-5.873-3.283-.343.061-.605.353-1.307,1.191a10.017,10.017,0,0,1-1.066,1.155,9.22,9.22,0,0,1-2.035-.754A12.6,12.6,0,0,1,9.383,12.8a9.22,9.22,0,0,1-.754-2.035A10.017,10.017,0,0,1,9.784,9.7c.837-.7,1.13-.963,1.191-1.307C11.1,7.66,8.317,3.268,7.691,2.519,7.429,2.208,7.191,2,6.886,2,6,2,2,6.947,2,7.589c0,.052.086,5.2,6.591,11.821C15.209,25.914,20.359,26,20.411,26,21.053,26,26,22,26,21.114c0-.305-.208-.543-.52-.806Z" transform="translate(0 0)" fill="#00b8c6"/>
    <path id="Path_45658" data-name="Path 45658" d="M22.143,13.857h1.714A6.865,6.865,0,0,0,17,7V8.714a5.148,5.148,0,0,1,5.143,5.143Z" transform="translate(-2.143 -0.714)" fill="#00b8c6"/>
    <path id="Path_45659" data-name="Path 45659" d="M26.429,13.143h1.714A11.156,11.156,0,0,0,17,2V3.714A9.44,9.44,0,0,1,26.429,13.143Z" transform="translate(-2.143)" fill="#00b8c6"/>
  </g>
</svg>
