<svg xmlns="http://www.w3.org/2000/svg" width="38" height="38" viewBox="0 0 38 38">
  <g id="Layer_2" data-name="Layer 2" transform="translate(-0.274 -0.214)">
    <g id="Color" transform="translate(0.274 0.214)">
      <g id="_04.Twitter" data-name="04.Twitter">
        <circle id="Background" cx="19" cy="19" r="19" transform="translate(0 -0.001)" fill="#03a9f4"/>
        <path id="Icon" d="M51.5,38.37a10.537,10.537,0,0,1-2.918.8,5.033,5.033,0,0,0,2.228-2.8A10.116,10.116,0,0,1,47.594,37.6a5.063,5.063,0,0,0-8.761,3.462,5.236,5.236,0,0,0,.118,1.154,14.341,14.341,0,0,1-10.439-5.3,5.068,5.068,0,0,0,1.558,6.774,5,5,0,0,1-2.288-.625v.055a5.088,5.088,0,0,0,4.057,4.973,5.051,5.051,0,0,1-1.327.166,4.516,4.516,0,0,1-.961-.085A5.116,5.116,0,0,0,34.284,51.7a10.184,10.184,0,0,1-6.272,2.16,9.146,9.146,0,0,1-1.212-.07A14.422,14.422,0,0,0,48.994,41.654c0-.223,0-.439-.018-.655A10.076,10.076,0,0,0,51.5,38.37Z" transform="translate(-20.25 -27.098)" fill="#fff"/>
      </g>
    </g>
  </g>
</svg>
