<svg xmlns="http://www.w3.org/2000/svg" xmlns:xlink="http://www.w3.org/1999/xlink" width="34" height="34" viewBox="0 0 42 42">
  <defs>
    <clipPath id="clip-path">
      <rect id="Rectangle_17505" data-name="Rectangle 17505" width="42" height="42" transform="translate(0.096)" fill="#a1a5b7"/>
    </clipPath>
  </defs>
  <g id="Group_38614" data-name="Group 38614" transform="translate(-0.096)" clip-path="url(#clip-path)">
    <path id="Path_45684" data-name="Path 45684" d="M13.256,42.088C5.071,42.088,0,37.054,0,28.948V13.165C0,5.034,5.071,0,13.256,0H29.142C37.291,0,42.4,5.034,42.4,13.159v4.886a1.614,1.614,0,0,1-1.618,1.61h-.023a1.6,1.6,0,0,1-1.6-1.591V13.159c0-6.4-3.562-9.939-10.013-9.939H13.256c-6.472,0-10.013,3.535-10.013,9.939V28.942c0,6.4,3.562,9.92,10.013,9.92H29.142c6.47,0,10.013-3.535,10.013-9.92a1.622,1.622,0,0,1,3.244,0v0c0,8.112-5.069,13.146-13.235,13.146Zm-1.172-9.514a1.617,1.617,0,0,1-1.565-1.665V17.441A1.6,1.6,0,0,1,12.177,15.9H12.2a1.616,1.616,0,0,1,1.567,1.667V31.019a1.617,1.617,0,0,1-1.622,1.555Zm7.568-1.639V11.2a1.622,1.622,0,0,1,3.244,0V30.935a1.622,1.622,0,0,1-3.244,0m8.987-.019V24.621a1.624,1.624,0,0,1,3.246-.116,1.053,1.053,0,0,1,0,.116v6.294a1.624,1.624,0,0,1-3.246,0" transform="translate(-0.438)" fill="#a1a5b7"/>
  </g>
</svg>