<svg xmlns="http://www.w3.org/2000/svg" xmlns:xlink="http://www.w3.org/1999/xlink" width="42.584" height="36.261" viewBox="0 0 42.584 36.261">
  <defs>
    <clipPath id="clip-path">
      <rect id="Rectangle_17506" data-name="Rectangle 17506" width="42.584" height="36.261" fill="#a1a5b7"/>
    </clipPath>
  </defs>
  <g id="Group_38617" data-name="Group 38617" transform="translate(0 0)">
    <g id="Group_38616" data-name="Group 38616" transform="translate(0 0)" clip-path="url(#clip-path)">
      <path id="Path_45685" data-name="Path 45685" d="M26.56,28.243a7.961,7.961,0,0,1,8.006-7.9,8.145,8.145,0,0,1,1.788.2,1.85,1.85,0,0,1,1.422,2.2v.017a1.882,1.882,0,0,1-2.249,1.4,4.317,4.317,0,0,0-5.207,4.092,4.256,4.256,0,1,0,8.455-.7,1.875,1.875,0,0,1,3.7-.6,8.006,8.006,0,1,1-15.9,1.309ZM1.888,30.094a1.854,1.854,0,0,1,0-3.707h15.4a1.854,1.854,0,1,1,0,3.707ZM.011,7.871a7.656,7.656,0,0,1,.111-1.3,1.877,1.877,0,0,1,3.7.6A4.256,4.256,0,1,0,8.772,3.741a4.207,4.207,0,0,0-.692-.068,4.143,4.143,0,0,0-1.011.106A1.873,1.873,0,0,1,4.814,2.394,1.849,1.849,0,0,1,6.21.183,7.888,7.888,0,1,1,0,7.871ZM25.3,9.725a1.854,1.854,0,0,1,0-3.707H40.694a1.854,1.854,0,1,1,0,3.707Z" transform="translate(0 0.001)" fill="#a1a5b7"/>
    </g>
  </g>
</svg>