<svg xmlns="http://www.w3.org/2000/svg" width="19.262" height="19.608" viewBox="0 0 19.262 19.608">
  <g id="user_14_" data-name="user (14)" transform="translate(-23.921 -27)">
    <path id="Path_38" data-name="Path 38" d="M52.053,32.527a5.527,5.527,0,1,0-5.527,5.527A5.527,5.527,0,0,0,52.053,32.527Zm-9.612,0a4.085,4.085,0,1,1,4.085,4.085A4.081,4.081,0,0,1,42.442,32.527Z" transform="translate(-12.975 0)" fill="#fff"/>
    <path id="Path_39" data-name="Path 39" d="M24.3,87.536a.678.678,0,0,0,.36.1.7.7,0,0,0,.625-.36,9.509,9.509,0,0,1,16.556,0,.721.721,0,1,0,1.25-.721,10.973,10.973,0,0,0-19.079,0A.722.722,0,0,0,24.3,87.536Z" transform="translate(0 -41.024)" fill="#fff"/>
  </g>
</svg>
