<svg xmlns="http://www.w3.org/2000/svg" width="26.031" height="26.032" viewBox="0 0 26.031 26.032">
  <g id="whatsapp_5_" data-name="whatsapp (5)" transform="translate(0 0)">
    <path id="Path_45660" data-name="Path 45660" d="M18.483,14.98l-.01.081c-2.385-1.189-2.635-1.347-2.943-.885-.214.32-.836,1.046-1.024,1.26s-.379.228-.7.081A8.8,8.8,0,0,1,11.2,13.908a9.84,9.84,0,0,1-1.8-2.245c-.318-.549.347-.627.952-1.772a.6.6,0,0,0-.027-.568c-.081-.163-.729-1.757-1-2.393S8.8,6.376,8.6,6.376a1.614,1.614,0,0,0-1.484.373C5.361,8.673,5.8,10.658,7.3,12.769c2.944,3.853,4.512,4.562,7.38,5.547a4.487,4.487,0,0,0,2.039.131A3.338,3.338,0,0,0,18.906,16.9a2.685,2.685,0,0,0,.2-1.546c-.08-.146-.293-.228-.618-.374Z" transform="translate(0.506 0.538)" fill="#00b8c6"/>
    <path id="Path_45661" data-name="Path 45661" d="M22.257,3.741C13.917-4.321.115,1.526.11,12.9a12.838,12.838,0,0,0,1.73,6.448L0,26.031,6.871,24.24a12.984,12.984,0,0,0,19.16-11.333,12.792,12.792,0,0,0-3.791-9.123Zm1.607,9.129A10.8,10.8,0,0,1,7.582,22.094l-.39-.232L3.124,22.92l1.09-3.954-.259-.407A10.757,10.757,0,0,1,20.709,5.289a10.616,10.616,0,0,1,3.155,7.582Z" transform="translate(0 0)" fill="#00b8c6"/>
  </g>
</svg>
