<svg xmlns="http://www.w3.org/2000/svg" width="21.374" height="18.077" viewBox="0 0 21.374 18.077">
  <path id="heart_4_" data-name="heart (4)" d="M20.45,42.042a5.458,5.458,0,0,0-2.512-2.124,6.042,6.042,0,0,0-3.812-.256,8.151,8.151,0,0,0-3.439,1.884,8.151,8.151,0,0,0-3.44-1.884,6.04,6.04,0,0,0-3.812.256A5.458,5.458,0,0,0,.925,42.042,6.274,6.274,0,0,0,0,45.528c.1,5.731,8.641,10.942,10.352,11.929a.668.668,0,0,0,.667,0c1.71-.987,10.248-6.2,10.352-11.93a6.275,6.275,0,0,0-.923-3.485ZM20.038,45.5c-.033,1.853-1.269,4.013-3.572,6.247A32.63,32.63,0,0,1,10.688,56.1,32.608,32.608,0,0,1,4.91,51.751c-2.3-2.234-3.539-4.394-3.572-6.247a4.4,4.4,0,0,1,2.616-4.355,4.452,4.452,0,0,1,1.733-.344,6.5,6.5,0,0,1,4.525,2.131.668.668,0,0,0,.952,0c1.9-1.927,4.293-2.612,6.258-1.787A4.4,4.4,0,0,1,20.038,45.5Z" transform="translate(-0.001 -39.469)" fill="#6d7787"/>
</svg>
