<svg xmlns="http://www.w3.org/2000/svg" width="82.043" height="82.048" viewBox="0 0 82.043 82.048">
  <g id="Page-1" transform="translate(0 0)">
    <g id="_046---Rent" data-name="046---Rent" transform="translate(0 -0.001)">
      <path id="Shape" d="M73.842,27.4V11.94A2.735,2.735,0,0,0,71.107,9.2H64.27a2.735,2.735,0,0,0-2.735,2.735v5.251L42.782,1.633a2.758,2.758,0,0,0-3.518,0L1,33.381a2.755,2.755,0,0,0-.3,3.946L4.1,41.176a2.746,2.746,0,0,0,3.829.294l.273-.235V80.313a2.735,2.735,0,0,0,2.735,2.735H71.107a2.735,2.735,0,0,0,2.735-2.735V41.235l.283.235a2.742,2.742,0,0,0,3.819-.294l3.4-3.848a2.753,2.753,0,0,0-.3-3.946ZM64.27,11.94h6.837V25.132L64.27,19.461Zm6.837,68.373H10.94V38.966L41.023,14.009,71.107,38.966ZM75.9,39.363a.021.021,0,0,1-.029,0L41.9,11.18a1.367,1.367,0,0,0-1.748,0l-34,28.183-3.41-3.877L41.037,3.735l38.275,31.78Z" transform="translate(0 -0.999)" fill="#00b8c6"/>
      <path id="Shape-2" data-name="Shape" d="M15.234,40.953l-1.187,6.733a1.367,1.367,0,0,0,1.109,1.584,1.283,1.283,0,0,0,.238.022,1.367,1.367,0,0,0,1.346-1.13l.712-4.041,1.862.328,1.5,5.051a1.367,1.367,0,0,0,1.31.978,1.325,1.325,0,0,0,.39-.057,1.367,1.367,0,0,0,.92-1.7l-1.273-4.279a4.1,4.1,0,0,0-.593-7.931l-4.041-.706a1.367,1.367,0,0,0-1.584,1.108l-.712,4.037Zm3.17-2.219,2.693.477a1.369,1.369,0,0,1,.547,2.467,1.348,1.348,0,0,1-1.023.226l-2.693-.475Z" transform="translate(5.153 11.782)" fill="#00b8c6"/>
      <path id="Shape-3" data-name="Shape" d="M24.02,50.833l5.386.957a1.3,1.3,0,0,0,.239.022,1.367,1.367,0,0,0,.234-2.72l-4.041-.714.476-2.694,4.039.712a1.281,1.281,0,0,0,.238.021,1.367,1.367,0,0,0,.245-2.708L26.8,43l.476-2.694,4.039.711a1.367,1.367,0,1,0,.476-2.691L26.4,37.367a1.367,1.367,0,0,0-1.584,1.109L22.906,49.25a1.367,1.367,0,0,0,1.114,1.584Z" transform="translate(8.409 12.356)" fill="#00b8c6"/>
      <path id="Shape-4" data-name="Shape" d="M31.9,52.224a1.367,1.367,0,0,0,1.584-1.109l.894-5.069,1.836,6.171a1.367,1.367,0,0,0,1.31.978H37.6a1.367,1.367,0,0,0,1.266-1.128l1.9-10.782a1.367,1.367,0,1,0-2.693-.475l-.893,5.069-1.838-6.167a1.367,1.367,0,0,0-2.656.153l-1.9,10.773A1.367,1.367,0,0,0,31.9,52.224Z" transform="translate(11.305 12.868)" fill="#00b8c6"/>
      <path id="Shape-5" data-name="Shape" d="M40.187,42.667l2.7.475L41.22,52.568a1.367,1.367,0,0,0,1.108,1.584,1.309,1.309,0,0,0,.239.022,1.367,1.367,0,0,0,1.346-1.131l1.663-9.427,2.693.476a1.426,1.426,0,0,0,.239.021,1.367,1.367,0,0,0,.237-2.713l-8.08-1.425a1.367,1.367,0,1,0-.476,2.693Z" transform="translate(14.341 13.312)" fill="#00b8c6"/>
      <path id="Shape-6" data-name="Shape" d="M32.05,22.47a5.422,5.422,0,0,0,1.314,3.516l-7.7,10.922L17.674,35.5a4.1,4.1,0,0,0-4.751,3.327L9.6,57.68a4.111,4.111,0,0,0,3.328,4.752l44.442,7.836a4.238,4.238,0,0,0,.718.063,4.1,4.1,0,0,0,4.031-3.391l3.327-18.854a4.1,4.1,0,0,0-3.328-4.749l-9.357-1.651-11.076-15.7A5.415,5.415,0,0,0,42.99,22.47a5.47,5.47,0,1,0-10.94,0ZM62.522,46.59a1.355,1.355,0,0,1,.227,1.021L59.424,66.466a1.367,1.367,0,0,1-1.584,1.109L13.4,59.74A1.367,1.367,0,0,1,12.29,58.16l3.326-18.854a1.35,1.35,0,0,1,.562-.882A1.367,1.367,0,0,1,17.2,38.2l44.442,7.838A1.347,1.347,0,0,1,62.522,46.59ZM28.637,37.428l6.955-9.861a5.237,5.237,0,0,0,3.856,0l9.486,13.439ZM40.255,22.47a2.735,2.735,0,1,1-2.735-2.735A2.735,2.735,0,0,1,40.255,22.47Z" transform="translate(3.503 4.88)" fill="#00b8c6"/>
    </g>
  </g>
</svg>
