<svg id="Outline" xmlns="http://www.w3.org/2000/svg" width="69.955" height="68.789" viewBox="0 0 69.955 68.789">
  <path id="Path_45625" data-name="Path 45625" d="M81.291,90.458V34.494h2.332a1.166,1.166,0,0,0,1.166-1.166V25.166A1.166,1.166,0,0,0,83.521,24L43.88,27.5a1.166,1.166,0,0,0-1.064,1.161v4.664a1.166,1.166,0,0,0,1.166,1.166h2.332V53.148h2.332V34.494H78.96V90.458H71.319a4.354,4.354,0,0,0,.645-2.3,4.208,4.208,0,0,0-1.511-3.189c-.57-.574-.821-.855-.821-1.508,0-2.9-1.6-5.83-4.664-5.83S60.3,80.565,60.3,83.462c0,.654-.252.935-.821,1.508a4.207,4.207,0,0,0-1.511,3.189,4.355,4.355,0,0,0,.645,2.3h-12.3V75.3a1.166,1.166,0,0,0-1.166-1.166h-7A1.166,1.166,0,0,0,36.987,75.3V90.458h-3.5V69.869L47.48,63.748l13.991,6.121v6.6H63.8V70.889l1.864.816A1.166,1.166,0,0,0,67.3,70.637v-5.83a1.166,1.166,0,0,0-.7-1.068L47.947,55.578a1.166,1.166,0,0,0-.935,0L28.358,63.739a1.166,1.166,0,0,0-.7,1.068v5.83a1.166,1.166,0,0,0,1.633,1.068l1.864-.816V90.458H23V70.637h2.332V68.305h-7V42.655h25.65V40.323H36.3L31.981,36a1.166,1.166,0,0,0-.824-.341H21.83a1.166,1.166,0,0,0-1.166,1.166v3.5h-3.5A1.166,1.166,0,0,0,16,41.489V69.471a1.166,1.166,0,0,0,1.166,1.166h3.5V90.458H16V92.79H85.955V90.458ZM45.148,29.731l37.309-3.292v5.722H45.148ZM29.991,68.854V65.57L47.48,57.919,64.969,65.57v3.284l-1.166-.51v-.039h-.089l-15.766-6.9a1.166,1.166,0,0,0-.935,0l-15.766,6.9h-.089v.039ZM23,37.991h7.679l2.332,2.332H23ZM39.318,76.467h4.664V90.458H39.318ZM62.637,90.458a2.513,2.513,0,0,1-2.332-2.3c0-.678.255-.964.834-1.546a4.167,4.167,0,0,0,1.5-3.151c0-2.767,1.525-3.5,2.332-3.5,1.844,0,2.332,2.288,2.332,3.5a4.167,4.167,0,0,0,1.5,3.151c.578.583.834.868.834,1.546a2.513,2.513,0,0,1-2.332,2.3Z" transform="translate(-16 -24)" fill="#00b8c6"/>
  <path id="Path_45626" data-name="Path 45626" d="M241.166,384A1.166,1.166,0,0,0,240,385.166V391a1.166,1.166,0,0,0,1.166,1.166h7A1.166,1.166,0,0,0,249.327,391v-5.83A1.166,1.166,0,0,0,248.161,384Zm5.83,5.83h-4.664v-3.5H247Z" transform="translate(-207.354 -331.534)" fill="#00b8c6"/>
  <rect id="Rectangle_17478" data-name="Rectangle 17478" width="3" height="1" transform="translate(24.001 46.658)" fill="#00b8c6"/>
  <path id="Path_45627" data-name="Path 45627" d="M60.825,181.991V170.332H71.318V168H49.166A1.166,1.166,0,0,0,48,169.166v18.655a1.166,1.166,0,0,0,1.166,1.166h3.5v-2.332H50.332V170.332h8.161v11.659Z" transform="translate(-43.336 -147.013)" fill="#00b8c6"/>
  <path id="Path_45628" data-name="Path 45628" d="M265.166,129.327h7a1.166,1.166,0,0,0,1.166-1.166v-7A1.166,1.166,0,0,0,272.161,120h-7A1.166,1.166,0,0,0,264,121.166v7A1.166,1.166,0,0,0,265.166,129.327Zm1.166-7H271V127h-4.664Z" transform="translate(-227.857 -106.009)" fill="#00b8c6"/>
  <path id="Path_45629" data-name="Path 45629" d="M361.166,129.327h7a1.166,1.166,0,0,0,1.166-1.166v-7A1.166,1.166,0,0,0,368.161,120h-7A1.166,1.166,0,0,0,360,121.166v7A1.166,1.166,0,0,0,361.166,129.327Zm1.166-7H367V127h-4.664Z" transform="translate(-309.866 -106.009)" fill="#00b8c6"/>
  <path id="Path_45630" data-name="Path 45630" d="M264,212.664h2.332v-2.332H271v5.83h2.332v-7A1.166,1.166,0,0,0,272.161,208h-7A1.166,1.166,0,0,0,264,209.166Z" transform="translate(-227.857 -181.184)" fill="#00b8c6"/>
  <path id="Path_45631" data-name="Path 45631" d="M360,216.161a1.166,1.166,0,0,0,1.166,1.166h7a1.166,1.166,0,0,0,1.166-1.166v-7A1.166,1.166,0,0,0,368.161,208h-7A1.166,1.166,0,0,0,360,209.166Zm2.332-5.83H367V215h-4.664Z" transform="translate(-309.866 -181.184)" fill="#00b8c6"/>
  <path id="Path_45632" data-name="Path 45632" d="M384,303v2.332h4.664a1.166,1.166,0,0,0,1.166-1.166v-7A1.166,1.166,0,0,0,388.664,296H384v2.332h3.5V303Z" transform="translate(-330.368 -256.359)" fill="#00b8c6"/>
  <rect id="Rectangle_17479" data-name="Rectangle 17479" width="1" height="3" transform="translate(10.001 49.658)" fill="#00b8c6"/>
</svg>
