<svg id="deal" xmlns="http://www.w3.org/2000/svg" width="90.91" height="91.207" viewBox="0 0 90.91 91.207">
  <path id="Path_45621" data-name="Path 45621" d="M202.928,329.6l-8.49-3.09a1.506,1.506,0,0,0-1.929.9l-.515,1.414-9.836-3.587a1.455,1.455,0,0,0-.774-.068L160.92,328.79a6.037,6.037,0,0,0-4.31,3.183l-9.387-3.424a5.964,5.964,0,0,0-4.6.2,6.036,6.036,0,0,0-3.418,4.579,6.155,6.155,0,0,0,4.109,6.612L174.232,351.2a1.469,1.469,0,0,0,.515.092,1.51,1.51,0,0,0,.482-.079l8.636-2.915.919.334-.515,1.415a1.507,1.507,0,0,0,.9,1.929l8.492,3.09a1.457,1.457,0,0,0,.513.092,1.5,1.5,0,0,0,1.415-.99l8.24-22.642A1.506,1.506,0,0,0,202.928,329.6ZM183.4,345.277l-8.636,2.915L144.34,337.117a3.182,3.182,0,0,1-2.162-3.325,3.011,3.011,0,0,1,4.015-2.409l9.77,3.555a6.516,6.516,0,0,0,.068.829A6.049,6.049,0,0,0,163,340.655l16.953-2.989-.524-2.967-16.945,2.99A3.033,3.033,0,0,1,159,335.256a2.789,2.789,0,0,1,.007-1.039,1.491,1.491,0,0,0,.026-.151,1.661,1.661,0,0,1,.1-.375,3.025,3.025,0,0,1,2.309-1.938l20.063-3.538,9.457,3.44-5.151,14.155L184.4,345.3A1.51,1.51,0,0,0,183.4,345.277Zm9.87,6.447-5.66-2.06,7.209-19.81,5.661,2.06Zm0,0" transform="translate(-113.01 -263.949)" fill="#00b8c6"/>
  <path id="Path_45622" data-name="Path 45622" d="M35.353,24.29a11.8,11.8,0,0,0,2.617,4.79,2.891,2.891,0,0,0-.046.365v8.2a4.517,4.517,0,0,0,4.517,4.518V57.222a1.5,1.5,0,0,0,.832,1.355l3.012,1.506a1.506,1.506,0,0,0,1.346,0l3.012-1.506a1.505,1.505,0,0,0,.833-1.355V42.163a4.518,4.518,0,0,0,4.517-4.518v-8.2a3.055,3.055,0,0,0-.05-.392,11.668,11.668,0,0,0,2.309-3.8,5.5,5.5,0,0,0,5.617-2.576,5.945,5.945,0,0,0-.946-7.339L50.668,3.087A10.474,10.474,0,0,0,43.216,0H27.382a1.483,1.483,0,0,0-.593.122L16.54,4.517h-1.2V1.506A1.506,1.506,0,0,0,13.83,0H1.783A1.506,1.506,0,0,0,.277,1.506V25.6A1.506,1.506,0,0,0,1.783,27.1H13.83A1.506,1.506,0,0,0,15.336,25.6V22.587h.22c1.078,3.614,5.92,6.023,10.321,6.023A12.014,12.014,0,0,0,35.353,24.29Zm-23.029-.2H3.289V3.012h9.035Zm36.14,32.2-1.506.753-1.506-.753V42.163h3.012Zm4.518-18.645a1.506,1.506,0,0,1-1.506,1.506H42.441a1.506,1.506,0,0,1-1.506-1.506V31.5a11.846,11.846,0,0,0,3.248,1.295,3.032,3.032,0,1,0,.422-3.026A8.931,8.931,0,0,1,42.2,28.739,11.823,11.823,0,0,1,46.958,27.1a14.116,14.116,0,0,1,6.023,2.34ZM54.1,26.612a16.437,16.437,0,0,0-7.145-2.519,16.41,16.41,0,0,0-7.134,2.513,8.821,8.821,0,0,1-1.768-4.019h7.4a5.871,5.871,0,0,0,5.261-3.148l4.217,4.216a5.426,5.426,0,0,0,.533.438A8.638,8.638,0,0,1,54.1,26.612ZM51.4,15.87a5.968,5.968,0,0,0-1.492-3.313,9.037,9.037,0,0,1,6.048,7.873Zm-18,5.212c0,2.28-3.73,4.518-7.529,4.518s-7.529-2.237-7.529-4.518a1.506,1.506,0,0,0-1.506-1.506H15.336V7.529h1.506a1.486,1.486,0,0,0,.593-.122l10.248-4.4H43.208a7.482,7.482,0,0,1,5.331,2.2L60.791,17.468a2.916,2.916,0,0,1,.537,3.585A2.71,2.71,0,0,1,59,22.316h-.071A11.731,11.731,0,0,0,59,21.082,12.06,12.06,0,0,0,46.958,9.035a11.921,11.921,0,0,0-5.781,1.506H28.888v3.012H45.452a3.012,3.012,0,0,1,0,6.023H34.912A1.506,1.506,0,0,0,33.406,21.082Zm0,0" transform="translate(-0.277 0)" fill="#00b8c6"/>
</svg>
