<svg xmlns="http://www.w3.org/2000/svg" width="82.869" height="74.364" viewBox="0 0 82.869 74.364">
  <g id="customer-service_2_" data-name="customer-service (2)" transform="translate(0)">
    <path id="Path_45615" data-name="Path 45615" d="M68.065,42.8l-14.7,6.211a3.913,3.913,0,0,0,.052-.563,5.179,5.179,0,0,0-5.176-5.176H37.651a2.923,2.923,0,0,1-1.245-.275L27.43,38.93a11.089,11.089,0,0,0-4.495-.97H15.623v2.621h7.312a8.36,8.36,0,0,1,3.42.734l8.976,4.062a5.693,5.693,0,0,0,2.332.5H48.252a2.555,2.555,0,0,1,0,5.111H34.532v2.621H48.238a5.1,5.1,0,0,0,2.477-.655v.013l18.358-7.771a5.929,5.929,0,0,1,7.417,2.437L44.085,64.823a10.556,10.556,0,0,1-8.1.721l-15.856-5.1-4.521-.066V63h3.918l15.659,5.032a12.9,12.9,0,0,0,3.984.616,13.037,13.037,0,0,0,6.133-1.52L79.832,48.836l-.38-1.075A8.54,8.54,0,0,0,68.065,42.8Z" transform="translate(3.037 5.715)" fill="#00b8c6"/>
    <path id="Path_45616" data-name="Path 45616" d="M17.2,65.85V38.031a2.628,2.628,0,0,0-2.621-2.621H1.38v2.621h13.2V65.863H1.38v2.621h13.2A2.648,2.648,0,0,0,17.2,65.85Z" transform="translate(-1.38 4.924)" fill="#00b8c6"/>
    <path id="Path_45617" data-name="Path 45617" d="M9.692,55.968A1.841,1.841,0,1,1,7.858,54.12,1.84,1.84,0,0,1,9.692,55.968Z" transform="translate(0.057 10.731)" fill="#00b8c6"/>
    <path id="Path_45618" data-name="Path 45618" d="M26.368,35.817l1.415,1.048,9.749-5.4,8.819,5.307.76.446L48.527,36.2,46.4,25.269l7.8-6.762.629-.6-.55-1.625L43.246,14.917l-4.01-9.487-.367-.786-.839-.013H37.14l-4.7,10.1L22.162,15.6l-.878.1-.524,1.638L28.9,24.928ZM25.255,17.97l8.151-.708.773-.092L37.939,9.1l3.184,7.508.328.721,8.858,1.088-6.133,5.32-.616.524,1.7,8.78L38.24,28.807l-.668-.354L29.8,32.764,31.623,24.9l.223-.812Z" transform="translate(4.635 -4.63)" fill="#00b8c6"/>
    <path id="Path_45619" data-name="Path 45619" d="M13.513,28.859l-1.9,8.164-.262.943,1.481,1.088L21,34.533,28.2,38.857l.812.511,1.455-1.061-1.782-9.16,1.9-1.638L28.871,25.53l-2.529,2.188-.38.446v.524L27.194,35.2l-5.32-3.21-.275-.262L20.485,31.7l-.262.262-5.438,3.014,1.468-6.368v-.773l-5.1-4.744,6.237-.55.6-.013.55-.55,2.791-6,2.516,5.936.406.773h.734l3.158.393.328-2.608-2.529-.3L22.62,12.309l-.446-.839-1.808.144-.249.773L16.58,20l-8.334.721-1.035.052-.55,1.913.721.472Z" transform="translate(0.259 -2.507)" fill="#00b8c6"/>
    <path id="Path_45620" data-name="Path 45620" d="M45.6,20.159l.236,2.608,2.529-.236.59-.026.55-.55,2.791-6,2.4,5.648.026,1.061H55.95l6.251.773-4.862,4.219-.432.459v.563l1.245,6.5-5.333-3.2-.275-.275-1.153.013-.236.249-5.412,3L47.223,28.6l-.013-.773-3.355-3.132-1.8,1.913,2.4,2.241L42.571,37.01l-.262.878,1.428,1.179,8.216-4.547,7.22,4.337.812.5,1.428-1.075-1.782-9.146,6.3-5.464a1.381,1.381,0,0,0,.472-1.441l-.3-.93-9.2-1.127-3.355-7.889-.393-.721L51.6,11.51l-.406.642-3.669,7.836Z" transform="translate(11.247 -2.495)" fill="#00b8c6"/>
  </g>
</svg>
