<?xml version="1.0" encoding="utf-8"?>
<!-- Generator: Adobe Illustrator 26.5.0, SVG Export Plug-In . SVG Version: 6.00 Build 0)  -->
<svg version="1.1" id="layer1" xmlns="http://www.w3.org/2000/svg" xmlns:xlink="http://www.w3.org/1999/xlink" x="0px" y="0px"
	 viewBox="0 0 22.7 12.4" style="enable-background:new 0 0 22.7 12.4;" xml:space="preserve">
<style type="text/css">
	.st0{fill:#00B8C6;}
</style>
<path id="path9413" class="st0" d="M1.1,7.2h18.1l-3.4,3.4c-0.4,0.4-0.4,1.1,0,1.5c0.4,0.4,1,0.4,1.4,0L20.4,9l2.1-2.1
	c0.4-0.4,0.4-1.1,0-1.5l-5.2-5.2c-0.4-0.4-1.1-0.4-1.5,0c-0.4,0.4-0.4,1.1,0,1.5c0,0,0,0,0,0l3.4,3.4H1c-0.6,0-1,0.5-1,1
	C0,6.8,0.5,7.2,1.1,7.2C1.1,7.2,1.1,7.2,1.1,7.2L1.1,7.2z"/>
</svg>
