<svg xmlns="http://www.w3.org/2000/svg" width="39" height="39" viewBox="0 0 39 39">
  <g id="google_1_" data-name="google (1)" transform="translate(0.5 0.777)">
    <circle id="Ellipse_519" data-name="Ellipse 519" cx="19" cy="19" r="19" transform="translate(0 -0.277)" fill="#fff" stroke="#f0f1f2" stroke-width="1"/>
    <g id="Group_38752" data-name="Group 38752" transform="translate(-0.122 -0.389)">
      <path id="Path_45733" data-name="Path 45733" d="M64.392,44.747H48.255v6.646h8.983a9.988,9.988,0,1,1-4.072-11.984l5.442-4.456a16.769,16.769,0,1,0,5.783,9.794Z" transform="translate(-28.764 -28.774)" fill="#fbbb00"/>
      <path id="Path_45734" data-name="Path 45734" d="M83.205,312.518h0a16.805,16.805,0,0,1-25.315-5.14l5.444-4.457a9.991,9.991,0,0,0,14.4,5.116Z" transform="translate(-53.567 -280.307)" fill="#28b446"/>
      <path id="Path_45735" data-name="Path 45735" d="M277.079,213.983a16.793,16.793,0,0,1-5.989,16.24h0l-5.472-4.48a10.012,10.012,0,0,0,4.308-5.113h-8.983v-6.646h16.137Z" transform="translate(-241.451 -198.01)" fill="#518ef8"/>
      <path id="Path_45736" data-name="Path 45736" d="M81.879,34.954l-5.442,4.456A9.99,9.99,0,0,0,61.708,44.64L56.235,40.16h0a16.8,16.8,0,0,1,25.645-5.206Z" transform="translate(-52.034 -28.774)" fill="#fc3f1d"/>
    </g>
  </g>
</svg>
