<?xml version="1.0" encoding="utf-8"?>
<!-- Generator: Adobe Illustrator 26.3.1, SVG Export Plug-In . SVG Version: 6.00 Build 0)  -->
<svg version="1.1" id="Group_6" xmlns="http://www.w3.org/2000/svg" xmlns:xlink="http://www.w3.org/1999/xlink" x="0px" y="0px"
	 viewBox="0 0 25 25" style="enable-background:new 0 0 25 25;" xml:space="preserve">
<style type="text/css">
	.st0{fill:#FFFFFF;}
</style>
<g>
	<path id="Path_6" class="st0" d="M12.5,2.2c3.3,0,3.7,0,5.1,0.1c0.8,0,1.6,0.2,2.3,0.4c1.1,0.4,2,1.3,2.4,2.4
		c0.3,0.7,0.4,1.5,0.4,2.3c0.1,1.3,0.1,1.7,0.1,5.1s0,3.7-0.1,5.1c0,0.8-0.2,1.6-0.4,2.3c-0.4,1.1-1.3,2-2.4,2.4
		c-0.7,0.3-1.5,0.4-2.3,0.4c-1.3,0.1-1.7,0.1-5.1,0.1s-3.7,0-5.1-0.1c-0.8,0-1.6-0.2-2.3-0.4c-1.1-0.4-2-1.3-2.4-2.4
		c-0.3-0.7-0.4-1.5-0.4-2.3c-0.1-1.3-0.1-1.7-0.1-5.1s0-3.7,0.1-5.1c0-0.8,0.2-1.6,0.4-2.3C3.2,4,4,3.2,5.1,2.7
		c0.7-0.3,1.5-0.4,2.3-0.4C8.8,2.2,9.2,2.2,12.5,2.2 M12.5,0C9.1,0,8.7,0,7.3,0c-1,0-2.1,0.2-3,0.6c-1.7,0.7-3,2-3.7,3.7
		c-0.4,1-0.6,2-0.6,3C0,8.7,0,9.1,0,12.5s0,3.8,0.1,5.2c0,1,0.2,2.1,0.6,3c0.7,1.7,2,3,3.7,3.7c1,0.4,2,0.6,3,0.6
		C8.7,25,9.1,25,12.5,25s3.8,0,5.2-0.1c1,0,2.1-0.2,3-0.6c1.7-0.7,3-2,3.7-3.7c0.4-1,0.6-2,0.6-3c0.1-1.3,0.1-1.8,0.1-5.2
		s0-3.8-0.1-5.2c0-1-0.2-2.1-0.6-3c-0.7-1.7-2-3-3.7-3.7c-1-0.4-2-0.6-3-0.6C16.3,0,15.9,0,12.5,0"/>
	<path id="Path_7" class="st0" d="M12.5,6.1c-3.6,0-6.4,2.9-6.4,6.4s2.9,6.4,6.4,6.4c3.6,0,6.4-2.9,6.4-6.4
		C18.9,8.9,16.1,6.1,12.5,6.1L12.5,6.1 M12.5,16.7c-2.3,0-4.2-1.9-4.2-4.2s1.9-4.2,4.2-4.2c2.3,0,4.2,1.9,4.2,4.2c0,0,0,0,0,0
		C16.7,14.8,14.8,16.7,12.5,16.7"/>
	<path id="Path_8" class="st0" d="M14,12.5c0,0.8-0.7,1.5-1.5,1.5S11,13.3,11,12.5s0.7-1.5,1.5-1.5S14,11.7,14,12.5"/>
</g>
</svg>
