<?xml version="1.0" encoding="utf-8"?>
<!-- Generator: Adobe Illustrator 26.3.1, SVG Export Plug-In . SVG Version: 6.00 Build 0)  -->
<svg version="1.1" id="Group_4" xmlns="http://www.w3.org/2000/svg" xmlns:xlink="http://www.w3.org/1999/xlink" x="0px" y="0px"
	 viewBox="0 0 25 25" style="enable-background:new 0 0 25 25;" xml:space="preserve">
<style type="text/css">
	.st0{fill:#FFFFFF;}
</style>
<g id="Group_5" transform="translate(0 0)">
	<path id="Path_2" class="st0" d="M13.6,0.9h4.1c0.4,3.5,2.4,5.3,5.8,5.8v4c-2,0-4-0.6-5.7-1.7c0,0.3-0.1,0.5-0.1,0.7
		c0,2.6,0,5.1,0,7.7c0,4.3-3.1,7.4-7.6,7.7c-3.6,0.2-7.2-2.9-7.7-6.7c-0.5-4.2,2.4-8,6.6-8.6c0.4,0,0.8-0.1,1.2-0.1
		c0.2,0,0.5,0.1,0.8,0.1v4.1c-0.2,0-0.4,0-0.6,0c-1.9-0.2-3.6,1.3-3.7,3.2C6.5,19,8,20.7,9.9,20.8c1.9,0.2,3.6-1.3,3.7-3.2
		c0-0.1,0-0.2,0-0.3c0-5.1,0-10.2,0-15.3L13.6,0.9"/>
	<path id="Path_3" class="st0" d="M12.7-0.1h4.1c0.4,3.5,2.4,5.3,5.8,5.8v4c-2,0-4-0.6-5.7-1.7c0,0.3-0.1,0.5-0.1,0.7
		c0,2.6,0,5.1,0,7.7c0,4.3-3.1,7.4-7.6,7.7c-3.6,0.2-7.2-2.9-7.7-6.7c-0.5-4.2,2.4-8,6.6-8.6c0.4,0,0.8-0.1,1.2-0.1
		c0.2,0,0.5,0.1,0.8,0.1V13c-0.2,0-0.4,0-0.6,0c-1.9-0.2-3.6,1.3-3.7,3.2c-0.2,1.9,1.3,3.6,3.2,3.7c1.9,0.2,3.6-1.3,3.7-3.2
		c0-0.1,0-0.2,0-0.3c0-5.1,0-10.2,0-15.3L12.7-0.1"/>
	<path id="Path_4" class="st0" d="M19.1,4.4c-1.1-0.9-1.9-2.1-2.2-3.6h-3.3V2c0,5.1,0,10.2,0,15.3c0,1.9-1.5,3.5-3.4,3.5
		c-0.1,0-0.2,0-0.3,0c-1.1-0.1-2-0.6-2.6-1.5c-1.6-1-2.1-3.2-1.1-4.8c0.7-1.1,2-1.7,3.3-1.6c0.2,0,0.4,0,0.6,0V9.7
		c-4.2,0-7.7,3.4-7.7,7.7c0,0.3,0,0.6,0.1,1c0.2,1.5,0.9,3,2,4.1c1.3,1.1,3,1.7,4.8,1.7c4.5-0.3,7.6-3.4,7.6-7.7c0-2.6,0-5.1,0-7.7
		c0-0.2,0-0.4,0.1-0.7c1.7,1.2,3.7,1.8,5.7,1.7v-4C21.3,5.6,20.1,5.2,19.1,4.4"/>
</g>
</svg>
