<?xml version="1.0" encoding="utf-8"?>
<!-- Generator: Adobe Illustrator 26.3.1, SVG Export Plug-In . SVG Version: 6.00 Build 0)  -->
<svg version="1.1" id="Layer_1" xmlns="http://www.w3.org/2000/svg" xmlns:xlink="http://www.w3.org/1999/xlink" x="0px" y="0px"
	 viewBox="0 0 25 25" style="enable-background:new 0 0 25 25;" xml:space="preserve">
<style type="text/css">
	.st0{fill:#FFFFFF;}
</style>
<path id="Path_10" class="st0" d="M0.3,20.2c6.6,4.2,15.4,2.3,19.6-4.3c1.6-2.5,2.4-5.4,2.2-8.3c1-0.7,1.8-1.6,2.5-2.6
	c-0.9,0.4-1.9,0.7-2.9,0.8c1-0.6,1.8-1.6,2.2-2.8c-1,0.6-2.1,1-3.2,1.2c-1.9-2-5.1-2.1-7.1-0.2c-1.3,1.2-1.9,3-1.4,4.8
	C8.3,8.5,4.6,6.6,2,3.5c-1.3,2.3-0.7,5.2,1.5,6.7c-0.8,0-1.6-0.2-2.3-0.6c0,2.4,1.7,4.5,4,5c-0.7,0.2-1.5,0.2-2.3,0.1
	c0.7,2,2.5,3.4,4.7,3.5C5.6,19.7,3,20.5,0.3,20.2"/>
</svg>
